<svg width="116" height="161" viewBox="0 0 116 161" fill="none" xmlns="http://www.w3.org/2000/svg">
<path d="M96.5622 160.005V113.792C96.5644 112.88 96.3874 111.976 96.04 111.134C95.6926 110.291 95.1813 109.526 94.5376 108.882C93.8975 108.235 93.1359 107.723 92.2967 107.374C91.4575 107.025 90.5571 106.846 89.6485 106.848H26.3535C25.4449 106.846 24.5464 107.025 23.7072 107.374C22.868 107.723 22.1064 108.235 21.4663 108.882C20.8223 109.526 20.3117 110.291 19.9639 111.134C19.6162 111.976 19.4379 112.88 19.4397 113.792V160.005C17.7897 158.713 16.2201 157.321 14.7397 155.837C12.4591 153.545 10.4022 151.039 8.59762 148.354C6.7772 145.648 5.22249 142.772 3.95601 139.766C2.66782 136.706 1.68455 133.527 1.02139 130.273C0.341585 126.92 -0.000782993 123.508 0.000313831 120.086C-0.0124088 116.737 0.361739 113.397 1.11492 110.134C2.09027 105.611 4.10847 101.38 7.00755 97.7795C10.1031 94.1846 14.0194 91.3917 18.4226 89.6395C22.1072 88.1221 25.9688 87.0807 29.9155 86.5397C33.3177 86.0477 38.2302 85.5233 43.057 85.1393C47.0089 84.8232 68.9892 84.8232 72.9411 85.1393C77.7699 85.5253 82.6824 86.0487 86.0825 86.5397C90.0303 87.0803 93.8939 88.1217 97.5794 89.6395C101.982 91.3922 105.899 94.1851 108.994 97.7795C111.893 101.381 113.911 105.611 114.887 110.134C115.639 113.397 116.012 116.737 116 120.086C116 123.508 115.657 126.92 114.979 130.273C114.314 133.526 113.332 136.706 112.046 139.766C110.778 142.771 109.223 145.647 107.404 148.354C105.599 151.039 103.541 153.545 101.258 155.837C99.7802 157.322 98.2118 158.714 96.5622 160.005Z" fill="#6C36FF"/>
<path d="M25.1548 81.1286L22.8437 64.6533C28.7581 62.1942 40.5686 58.071 53.2363 58.071C54.2829 58.071 55.3556 58.1018 56.4301 58.1628C60.7708 58.5247 65.0651 59.3127 69.2521 60.5164H69.2637L69.3066 60.5252L69.3339 60.532H69.3436H69.3495L69.5015 60.5691C71.2275 61.0082 73.2288 61.5089 75.1564 61.9129C80.3767 63.0083 85.7006 63.5298 91.0337 63.4687H91.4234L88.9994 80.7644C88.1942 80.6264 87.5578 80.526 86.9981 80.444C83.4693 79.936 78.4069 79.3938 73.4494 78.9938C71.1736 78.8178 64.3862 78.5592 58.0728 78.5592C51.5878 78.5592 44.8858 78.8118 42.5462 78.9938C37.5478 79.3938 32.4814 79.937 28.9975 80.444C27.6825 80.635 26.3909 80.8637 25.1567 81.1247L25.1548 81.1286ZM22.189 61.1463C17.2924 60.8079 12.7069 58.6158 9.36318 55.0142C5.98299 51.396 4.10591 46.6229 4.11359 41.666C4.10666 39.0552 4.62647 36.4704 5.64131 34.066C6.61587 31.7456 8.03065 29.6372 9.80746 27.8577C11.5763 26.0746 13.6745 24.6526 15.9846 23.672C18.0317 22.8013 20.214 22.2938 22.4345 22.1719C23.0821 24.5554 24.1789 26.7926 25.6653 28.763C27.2295 30.8466 29.1966 32.5915 31.4508 33.8931C32.6421 34.5848 33.9043 35.1493 35.2136 35.5758C32.9767 34.266 31.0252 32.5183 29.4749 30.4379C27.9766 28.4279 26.8788 26.1474 26.2421 23.7208C25.5976 21.2961 25.4257 18.7701 25.7355 16.2801C26.059 13.6985 26.8951 11.2078 28.1946 8.95551C28.7987 7.90428 29.4978 6.91125 30.2836 5.98859C30.3344 5.93558 30.383 5.8881 30.4239 5.8421L30.457 5.80987L30.5408 5.7249C32.3096 3.94161 34.4087 2.52141 36.7198 1.54308C39.1123 0.522905 41.6864 -0.000415637 44.2863 0.00492325C48.0412 0.00193143 51.7155 1.09493 54.8615 3.14959C57.6455 4.96903 59.9215 7.46866 61.4751 10.4136C62.2235 12.1233 63.1244 13.761 64.1681 15.3074C65.281 16.967 66.5514 18.5156 67.9601 19.9316C69.3694 21.3474 70.9108 22.6254 72.5628 23.7472C74.228 24.8774 75.9978 25.8425 77.8494 26.6292C81.6773 28.2569 85.794 29.0921 89.9522 29.0843C90.6027 29.0843 91.2564 29.0638 91.8989 29.0238C87.9371 28.7831 84.0608 27.776 80.48 26.0598C78.7405 25.2248 77.0798 24.2308 75.5227 23.0899C73.9754 21.9533 72.5368 20.6774 71.2221 19.2773C71.0545 19.0983 70.8984 18.9268 70.7408 18.7548C72.7647 17.1497 75.0379 15.8891 77.4694 15.0222C79.9897 14.127 82.6445 13.6704 85.3184 13.6735C88.4667 13.668 91.5831 14.3014 94.4808 15.5349C95.881 16.1298 97.22 16.8593 98.4794 17.7137C99.7291 18.564 100.896 19.5308 101.964 20.6015C103.031 21.6737 103.993 22.8458 104.838 24.1017C105.686 25.3693 106.412 26.7153 107.007 28.1204C108.235 31.0332 108.865 34.1645 108.858 37.3269C108.859 39.932 108.433 42.5198 107.597 44.9864C106.788 47.3629 105.606 49.5941 104.095 51.5971C102.598 53.5808 100.799 55.318 98.7658 56.7447C96.7109 58.1871 94.4376 59.288 92.0334 60.0056C91.6612 60.0056 91.536 60.0055 91.0552 60.0115C87.3979 60.0338 83.7439 59.7919 80.1215 59.2868C82.0461 58.4884 83.8289 57.3819 85.4003 56.0113C88.8876 52.9813 91.1906 48.8112 91.9009 44.2403C91.2425 46.1224 90.2996 47.8924 89.1065 49.4886C87.9234 51.0687 86.5089 52.4607 84.9112 53.6177C83.2998 54.7903 81.5169 55.7037 79.6246 56.3248C77.6669 56.9723 75.6181 57.3002 73.5566 57.2965C70.9578 57.3006 68.3848 56.7787 65.992 55.7623C63.6799 54.7835 61.5806 53.3616 59.8129 51.5756C58.037 49.7962 56.6228 47.6881 55.6487 45.3683C54.6346 42.9636 54.1148 40.378 54.121 37.7673C54.1212 36.7629 54.1971 35.76 54.349 34.7672C53.6231 36.8482 53.2525 39.0375 53.2519 41.2421C53.2448 43.8528 53.7647 46.4377 54.7797 48.8421C55.7202 51.0858 57.0741 53.1322 58.7704 54.8736C58.0301 54.7976 57.3028 54.7406 56.6094 54.7056C55.493 54.6406 54.33 54.605 53.1448 54.605C49.8643 54.6147 46.5883 54.8554 43.3413 55.3238C43.3296 55.3228 43.3178 55.3228 43.3062 55.3238H43.2614H43.2321C42.7941 55.3588 42.3285 55.3765 41.8486 55.3765C39.8072 55.3759 37.7785 55.0503 35.8391 54.4116C33.4518 53.6403 31.2379 52.4082 29.3229 50.7845C27.3344 49.1025 25.7067 47.0349 24.5351 44.7061C23.4019 42.4879 22.7047 40.0711 22.4852 37.5886C22.1571 41.246 22.8668 44.9224 24.5293 48.1946C25.7058 50.5221 27.3363 52.5882 29.3248 54.272C30.7409 55.4681 32.319 56.4564 34.0132 57.2057C29.9909 58.2577 26.0425 59.5737 22.1929 61.1463H22.189Z" fill="#6C36FF"/>
<path d="M76.8821 145.694C79.1413 145.696 81.3543 145.053 83.2624 143.84C85.1705 142.628 86.6949 140.896 87.6575 138.848C88.6201 136.799 88.9811 134.518 88.6984 132.271C88.4157 130.025 87.5009 127.905 86.0609 126.16L64.9826 134.27C65.1141 137.345 66.4253 140.25 68.6426 142.379C70.8599 144.507 73.8118 145.695 76.8821 145.694Z" fill="#6C36FF"/>
<path d="M39.7633 145.693C38.1713 145.696 36.5946 145.377 35.1285 144.756C33.7133 144.156 32.4276 143.287 31.3423 142.197C30.2551 141.11 29.389 139.822 28.7916 138.404C28.1707 136.935 27.852 135.354 27.8552 133.758C27.8535 132.357 28.0992 130.966 28.5801 129.651C29.0448 128.381 29.7214 127.201 30.5814 126.16L51.6596 134.27C51.5346 137.339 50.2276 140.24 48.0137 142.364C45.7986 144.505 42.8403 145.699 39.7633 145.693Z" fill="#6C36FF"/>
</svg>
