<svg width="132" height="86" viewBox="0 0 132 86" fill="none" xmlns="http://www.w3.org/2000/svg">
<path d="M59.8566 48.5C61.9009 44.4531 64.7171 40.3018 68.2216 36.2966C70.8918 33.251 73.7497 30.5391 76.691 28.1819C73.7497 25.8246 70.8918 23.1128 68.2216 20.0671C64.7171 16.0619 61.9218 11.9107 59.8566 7.86375C57.8123 11.9107 54.9961 16.0619 51.4915 20.0671C48.8214 23.1128 45.9635 25.8246 43.0222 28.1819C45.9635 30.5391 48.8214 33.251 51.4915 36.2966C54.9961 40.3018 57.7914 44.4531 59.8566 48.5Z" fill="#F87C97"/>
<path d="M81.7184 18.0228C82.6154 16.2705 83.8253 14.4974 85.3272 12.766C86.4746 11.4518 87.7053 10.2836 88.9778 9.2614C87.7053 8.23924 86.4746 7.07105 85.3272 5.75683C83.8044 4.02541 82.6154 2.23142 81.7184 0.5C80.8214 2.25228 79.6115 4.02541 78.1095 5.75683C76.9622 7.07105 75.7314 8.23924 74.4589 9.2614C75.7314 10.2836 76.9622 11.4518 78.1095 12.766C79.6323 14.4974 80.8214 16.2914 81.7184 18.0228Z" fill="#F87C97"/>
<path d="M2.41761 79.5V62.0455H8.6392C9.99716 62.0455 11.1222 62.2926 12.0142 62.7869C12.9063 63.2812 13.5739 63.9574 14.017 64.8153C14.4602 65.6676 14.6818 66.6278 14.6818 67.696C14.6818 68.7699 14.4574 69.7358 14.0085 70.5938C13.5653 71.446 12.8949 72.1222 11.9972 72.6222C11.1051 73.1165 9.98295 73.3636 8.63068 73.3636H4.35227V71.1307H8.39205C9.25 71.1307 9.94602 70.983 10.4801 70.6875C11.0142 70.3864 11.4062 69.9773 11.6562 69.4602C11.9062 68.9432 12.0312 68.3551 12.0312 67.696C12.0312 67.0369 11.9062 66.4517 11.6562 65.9403C11.4062 65.429 11.0114 65.0284 10.4716 64.7386C9.9375 64.4489 9.23295 64.304 8.35795 64.304H5.05114V79.5H2.41761ZM18.0446 79.5V66.4091H20.5077V68.4886H20.6441C20.8827 67.7841 21.3032 67.2301 21.9054 66.8267C22.5134 66.4176 23.2009 66.2131 23.9679 66.2131C24.127 66.2131 24.3145 66.2187 24.5304 66.2301C24.752 66.2415 24.9253 66.2557 25.0503 66.2727V68.7102C24.948 68.6818 24.7662 68.6506 24.5049 68.6165C24.2435 68.5767 23.9821 68.5568 23.7208 68.5568C23.1185 68.5568 22.5816 68.6847 22.11 68.9403C21.6441 69.1903 21.2747 69.5398 21.002 69.9886C20.7293 70.4318 20.5929 70.9375 20.5929 71.5057V79.5H18.0446ZM32.781 79.7642C31.5537 79.7642 30.4827 79.483 29.568 78.9205C28.6532 78.358 27.943 77.571 27.4373 76.5597C26.9316 75.5483 26.6787 74.3665 26.6787 73.0142C26.6787 71.6562 26.9316 70.4687 27.4373 69.4517C27.943 68.4347 28.6532 67.6449 29.568 67.0824C30.4827 66.5199 31.5537 66.2386 32.781 66.2386C34.0083 66.2386 35.0793 66.5199 35.9941 67.0824C36.9089 67.6449 37.6191 68.4347 38.1248 69.4517C38.6305 70.4687 38.8833 71.6562 38.8833 73.0142C38.8833 74.3665 38.6305 75.5483 38.1248 76.5597C37.6191 77.571 36.9089 78.358 35.9941 78.9205C35.0793 79.483 34.0083 79.7642 32.781 79.7642ZM32.7895 77.625C33.585 77.625 34.2441 77.4148 34.7668 76.9943C35.2895 76.5739 35.6759 76.0142 35.9259 75.3153C36.1816 74.6165 36.3094 73.8466 36.3094 73.0057C36.3094 72.1705 36.1816 71.4034 35.9259 70.7045C35.6759 70 35.2895 69.4347 34.7668 69.0085C34.2441 68.5824 33.585 68.3693 32.7895 68.3693C31.9884 68.3693 31.3236 68.5824 30.7952 69.0085C30.2725 69.4347 29.8833 70 29.6276 70.7045C29.3776 71.4034 29.2526 72.1705 29.2526 73.0057C29.2526 73.8466 29.3776 74.6165 29.6276 75.3153C29.8833 76.0142 30.2725 76.5739 30.7952 76.9943C31.3236 77.4148 31.9884 77.625 32.7895 77.625ZM42.2078 79.5V66.4091H44.6538V68.5398H44.8157C45.0884 67.8182 45.5345 67.2557 46.1538 66.8523C46.7731 66.4432 47.5146 66.2386 48.3782 66.2386C49.2532 66.2386 49.9862 66.4432 50.5771 66.8523C51.1737 67.2614 51.614 67.8239 51.8981 68.5398H52.0345C52.347 67.8409 52.8441 67.2841 53.5259 66.8693C54.2078 66.4489 55.0203 66.2386 55.9634 66.2386C57.1509 66.2386 58.1197 66.6108 58.8697 67.3551C59.6254 68.0994 60.0032 69.2216 60.0032 70.7216V79.5H57.4549V70.9602C57.4549 70.0739 57.2134 69.4318 56.7305 69.0341C56.2475 68.6364 55.6708 68.4375 55.0004 68.4375C54.1708 68.4375 53.5259 68.6932 53.0657 69.2045C52.6055 69.7102 52.3754 70.3608 52.3754 71.1562V79.5H49.8356V70.7983C49.8356 70.0881 49.614 69.517 49.1708 69.0852C48.7276 68.6534 48.1509 68.4375 47.4407 68.4375C46.9578 68.4375 46.5117 68.5653 46.1026 68.821C45.6992 69.071 45.3725 69.4205 45.1225 69.8693C44.8782 70.3182 44.756 70.8381 44.756 71.429V79.5H42.2078ZM69.5407 79.7642C68.251 79.7642 67.1402 79.4886 66.2084 78.9375C65.2822 78.3807 64.5663 77.5994 64.0606 76.5938C63.5606 75.5824 63.3106 74.3977 63.3106 73.0398C63.3106 71.6989 63.5606 70.517 64.0606 69.4943C64.5663 68.4716 65.2709 67.6733 66.1743 67.0994C67.0834 66.5256 68.1459 66.2386 69.3618 66.2386C70.1004 66.2386 70.8163 66.3608 71.5095 66.6051C72.2027 66.8494 72.8248 67.233 73.376 67.7557C73.9271 68.2784 74.3618 68.9574 74.6799 69.7926C74.9981 70.6222 75.1572 71.6307 75.1572 72.8182V73.7216H64.751V71.8125H72.6601C72.6601 71.142 72.5237 70.5483 72.251 70.0312C71.9782 69.5085 71.5947 69.0966 71.1004 68.7955C70.6118 68.4943 70.0379 68.3438 69.3788 68.3438C68.6629 68.3438 68.0379 68.5199 67.5038 68.8722C66.9754 69.2187 66.5663 69.6733 66.2765 70.2358C65.9924 70.7926 65.8504 71.3977 65.8504 72.0511V73.5426C65.8504 74.4176 66.0038 75.1619 66.3106 75.7756C66.6231 76.3892 67.0578 76.858 67.6146 77.1818C68.1714 77.5 68.822 77.6591 69.5663 77.6591C70.0493 77.6591 70.4896 77.5909 70.8873 77.4545C71.2851 77.3125 71.6288 77.1023 71.9186 76.8239C72.2084 76.5455 72.4299 76.2017 72.5834 75.7926L74.9953 76.2273C74.8021 76.9375 74.4555 77.5597 73.9555 78.0938C73.4612 78.6222 72.839 79.0341 72.089 79.3295C71.3447 79.6193 70.4953 79.7642 69.5407 79.7642ZM84.5754 66.4091V68.4545H77.4249V66.4091H84.5754ZM79.3425 63.2727H81.8908V75.6562C81.8908 76.1506 81.9646 76.5227 82.1124 76.7727C82.2601 77.017 82.4504 77.1847 82.6834 77.2756C82.922 77.3608 83.1805 77.4034 83.459 77.4034C83.6635 77.4034 83.8425 77.3892 83.9959 77.3608C84.1493 77.3324 84.2686 77.3097 84.3538 77.2926L84.8141 79.3977C84.6663 79.4545 84.4561 79.5114 84.1834 79.5682C83.9107 79.6307 83.5697 79.6648 83.1607 79.6705C82.4902 79.6818 81.8652 79.5625 81.2857 79.3125C80.7061 79.0625 80.2374 78.6761 79.8794 78.1534C79.5215 77.6307 79.3425 76.9744 79.3425 76.1847V63.2727ZM90.7039 71.7273V79.5H88.1556V62.0455H90.6698V68.5398H90.8317C91.1385 67.8352 91.6073 67.2756 92.238 66.8608C92.8686 66.446 93.6925 66.2386 94.7095 66.2386C95.6073 66.2386 96.3914 66.4233 97.0618 66.7926C97.738 67.1619 98.2607 67.7131 98.63 68.446C99.005 69.1733 99.1925 70.0824 99.1925 71.1733V79.5H96.6442V71.4801C96.6442 70.5199 96.397 69.7756 95.9027 69.2472C95.4084 68.7131 94.7209 68.446 93.8402 68.446C93.238 68.446 92.6982 68.5739 92.2209 68.8295C91.7493 69.0852 91.3772 69.4602 91.1044 69.9545C90.8374 70.4432 90.7039 71.0341 90.7039 71.7273Z" fill="#F87C97"/>
<path d="M110.026 79.5H106.071L112.097 62.0455H116.852L122.869 79.5H118.915L114.543 66.0341H114.406L110.026 79.5ZM109.778 72.6392H119.119V75.5199H109.778V72.6392ZM129.141 62.0455V79.5H125.45V62.0455H129.141Z" fill="#F87C97"/>
</svg>
