<svg width="21" height="15" viewBox="0 0 21 15" fill="none" xmlns="http://www.w3.org/2000/svg">
<path d="M20.2272 3.56587C20.2272 1.65605 15.7504 0.108643 10.2272 0.108643C4.70392 0.108643 0.227173 1.65605 0.227173 3.56587C0.227173 3.728 0.227173 4.04272 0.227173 4.04272C0.227173 10.0344 4.70392 14.8913 10.2272 14.8913C15.7504 14.8913 20.2272 10.0344 20.2272 4.04272C20.2272 4.04272 20.2272 3.728 20.2272 3.56587ZM10.8481 11.1121C10.4574 11.5699 10.1435 12.0444 9.91555 12.507C9.68531 12.0444 9.37368 11.5699 8.98299 11.1121C8.68531 10.764 8.36671 10.4541 8.0388 10.1847C8.36671 9.91523 8.68531 9.60528 8.98299 9.25717C9.37368 8.79939 9.68764 8.32491 9.91555 7.86236C10.1458 8.32491 10.4574 8.79939 10.8481 9.25717C11.1458 9.60528 11.4644 9.91523 11.7923 10.1847C11.4644 10.4541 11.1458 10.764 10.8481 11.1121ZM12.7551 8.42267C12.5876 8.62056 12.4528 8.82323 12.3528 9.02351C12.2528 8.82561 12.1202 8.62056 11.9504 8.42267C11.8225 8.27246 11.6853 8.13894 11.5435 8.02211C11.6853 7.90528 11.8225 7.77176 11.9504 7.62154C12.1179 7.42365 12.2528 7.22098 12.3528 7.0207C12.4528 7.2186 12.5853 7.42365 12.7551 7.62154C12.883 7.77176 13.0202 7.90528 13.1621 8.02211C13.0202 8.13894 12.883 8.27246 12.7551 8.42267ZM17.0016 5.10612C15.2062 5.72603 12.8016 6.06937 10.2272 6.06937C7.65275 6.06937 5.2481 5.72842 3.45275 5.10612C1.76903 4.52435 1.15741 3.86629 1.15741 3.56587C1.15741 3.26544 1.76903 2.60738 3.45275 2.02561C5.2481 1.4057 7.65275 1.06236 10.2272 1.06236C12.8016 1.06236 15.2062 1.40331 17.0016 2.02561C18.6853 2.60738 19.2969 3.26544 19.2969 3.56587C19.2969 3.86629 18.6853 4.52435 17.0016 5.10612Z" fill="#F87C97"/>
</svg>
