<svg width="12" height="20" viewBox="0 0 12 20" fill="none" xmlns="http://www.w3.org/2000/svg">
<path d="M0.327991 10.244C0.32568 10.4197 0.359726 10.594 0.427991 10.756C0.504453 10.9256 0.613132 11.0788 0.747991 11.207L9.12099 19.394C9.23495 19.5114 9.37172 19.6042 9.52288 19.6668C9.67404 19.7294 9.8364 19.7604 9.99999 19.758C10.2231 19.7613 10.443 19.704 10.636 19.592C10.8228 19.4831 10.9792 19.3291 11.091 19.144C11.2062 18.9539 11.2658 18.7353 11.263 18.513C11.2629 18.3437 11.2285 18.1763 11.1618 18.0207C11.0951 17.8652 10.9975 17.7248 10.875 17.608L3.32599 10.242L10.875 2.881C10.9974 2.76518 11.0949 2.62565 11.1616 2.47092C11.2283 2.31619 11.2628 2.1495 11.263 1.981C11.2658 1.75871 11.2062 1.5401 11.091 1.35C10.9792 1.16492 10.8228 1.01088 10.636 0.901997C10.4433 0.788992 10.2234 0.73057 9.99999 0.732996C9.83753 0.730095 9.67615 0.759945 9.52547 0.820765C9.3748 0.881585 9.23792 0.972128 9.12299 1.087L0.750991 9.281C0.617296 9.40937 0.509361 9.56211 0.432991 9.731C0.363558 9.8931 0.327833 10.0676 0.327991 10.244Z" fill="#6C36FF"/>
</svg>
