<svg width="393" height="73" viewBox="0 0 393 73" fill="none" xmlns="http://www.w3.org/2000/svg">
<path d="M491 0.900879L-90.0001 0.900879V72.9009L491 72.9009V0.900879Z" fill="#6C36FF"/>
<mask id="mask0_575_6531" style="mask-type:luminance" maskUnits="userSpaceOnUse" x="-138" y="22" width="637" height="30">
<path d="M499 22.9009L-137 22.9009V51.9009L499 51.9009V22.9009Z" fill="white"/>
</mask>
<g mask="url(#mask0_575_6531)">
<path d="M-119.347 33.5571H-123.08C-123.148 33.0742 -123.287 32.6452 -123.497 32.2702C-123.707 31.8895 -123.977 31.5657 -124.307 31.2986C-124.636 31.0316 -125.017 30.827 -125.449 30.685C-125.875 30.5429 -126.338 30.4719 -126.838 30.4719C-127.741 30.4719 -128.528 30.6963 -129.199 31.1452C-129.869 31.5884 -130.389 32.2361 -130.758 33.0884C-131.128 33.935 -131.312 34.9634 -131.312 36.1736C-131.312 37.4179 -131.128 38.4634 -130.758 39.31C-130.383 40.1566 -129.861 40.7958 -129.19 41.2276C-128.52 41.6594 -127.744 41.8753 -126.864 41.8753C-126.369 41.8753 -125.912 41.81 -125.491 41.6793C-125.065 41.5486 -124.687 41.3583 -124.358 41.1083C-124.028 40.8526 -123.756 40.5429 -123.54 40.1793C-123.318 39.8157 -123.165 39.4009 -123.08 38.935L-119.347 38.952C-119.443 39.7532 -119.685 40.5259 -120.071 41.2702C-120.452 42.0088 -120.966 42.6708 -121.614 43.256C-122.256 43.8355 -123.023 44.2958 -123.915 44.6367C-124.801 44.9719 -125.804 45.1395 -126.923 45.1395C-128.48 45.1395 -129.872 44.7872 -131.099 44.0827C-132.321 43.3782 -133.287 42.3583 -133.997 41.023C-134.702 39.6878 -135.054 38.0713 -135.054 36.1736C-135.054 34.2702 -134.696 32.6509 -133.98 31.3157C-133.264 29.9804 -132.293 28.9634 -131.065 28.2645C-129.838 27.56 -128.457 27.2077 -126.923 27.2077C-125.912 27.2077 -124.974 27.3497 -124.111 27.6338C-123.241 27.9179 -122.472 28.3327 -121.801 28.8782C-121.131 29.4179 -120.585 30.0799 -120.165 30.8639C-119.739 31.648 -119.466 32.5458 -119.347 33.5571ZM-110.854 45.1566C-112.178 45.1566 -113.322 44.8753 -114.288 44.3128C-115.249 43.7446 -115.99 42.9549 -116.513 41.9435C-117.035 40.9264 -117.297 39.7475 -117.297 38.4066C-117.297 37.0543 -117.035 35.8725 -116.513 34.8611C-115.99 33.8441 -115.249 33.0543 -114.288 32.4918C-113.322 31.9236 -112.178 31.6395 -110.854 31.6395C-109.53 31.6395 -108.388 31.9236 -107.428 32.4918C-106.462 33.0543 -105.717 33.8441 -105.195 34.8611C-104.672 35.8725 -104.41 37.0543 -104.41 38.4066C-104.41 39.7475 -104.672 40.9264 -105.195 41.9435C-105.717 42.9549 -106.462 43.7446 -107.428 44.3128C-108.388 44.8753 -109.53 45.1566 -110.854 45.1566ZM-110.837 42.3441C-110.234 42.3441 -109.731 42.1736 -109.328 41.8327C-108.925 41.4861 -108.621 41.0145 -108.416 40.4179C-108.206 39.8213 -108.101 39.1424 -108.101 38.381C-108.101 37.6196 -108.206 36.9407 -108.416 36.3441C-108.621 35.7475 -108.925 35.2759 -109.328 34.9293C-109.731 34.5827 -110.234 34.4094 -110.837 34.4094C-111.445 34.4094 -111.956 34.5827 -112.371 34.9293C-112.78 35.2759 -113.089 35.7475 -113.3 36.3441C-113.504 36.9407 -113.606 37.6196 -113.606 38.381C-113.606 39.1424 -113.504 39.8213 -113.3 40.4179C-113.089 41.0145 -112.78 41.4861 -112.371 41.8327C-111.956 42.1736 -111.445 42.3441 -110.837 42.3441ZM-102.05 44.9009V31.81H-98.5894V34.1196H-98.436C-98.1633 33.3526 -97.7088 32.7475 -97.0724 32.3043C-96.436 31.8611 -95.6747 31.6395 -94.7883 31.6395C-93.8906 31.6395 -93.1264 31.8639 -92.4957 32.3128C-91.865 32.756 -91.4446 33.3583 -91.2343 34.1196H-91.098C-90.8309 33.3696 -90.348 32.7702 -89.6491 32.3213C-88.9446 31.8668 -88.1122 31.6395 -87.1519 31.6395C-85.9304 31.6395 -84.9389 32.0287 -84.1775 32.8071C-83.4105 33.5799 -83.0269 34.6764 -83.0269 36.0969V44.9009H-86.6491V36.8128C-86.6491 36.0855 -86.8423 35.5401 -87.2287 35.1764C-87.615 34.8128 -88.098 34.631 -88.6775 34.631C-89.3366 34.631 -89.8508 34.8412 -90.2201 35.2617C-90.5894 35.6764 -90.7741 36.2247 -90.7741 36.9066V44.9009H-94.294V36.7361C-94.294 36.0941 -94.4787 35.5827 -94.848 35.202C-95.2116 34.8213 -95.6917 34.631 -96.2883 34.631C-96.6917 34.631 -97.0554 34.7333 -97.3792 34.9378C-97.6974 35.1367 -97.9502 35.4179 -98.1377 35.7816C-98.3252 36.1395 -98.419 36.56 -98.419 37.0429V44.9009H-102.05ZM-80.159 44.9009V31.81H-76.5284V44.9009H-80.159ZM-78.3352 30.1225C-78.875 30.1225 -79.338 29.9435 -79.7244 29.5855C-80.1051 29.2219 -80.2954 28.7872 -80.2954 28.2816C-80.2954 27.7816 -80.1051 27.3526 -79.7244 26.9946C-79.338 26.631 -78.875 26.4492 -78.3352 26.4492C-77.7954 26.4492 -77.3352 26.631 -76.9545 26.9946C-76.5681 27.3526 -76.375 27.7816 -76.375 28.2816C-76.375 28.7872 -76.5681 29.2219 -76.9545 29.5855C-77.3352 29.9435 -77.7954 30.1225 -78.3352 30.1225ZM-69.9893 37.3327V44.9009H-73.62V31.81H-70.1598V34.1196H-70.0064C-69.7166 33.3583 -69.2308 32.756 -68.549 32.3128C-67.8671 31.8639 -67.0404 31.6395 -66.0689 31.6395C-65.1598 31.6395 -64.3671 31.8384 -63.691 32.2361C-63.0149 32.6338 -62.4893 33.202 -62.1143 33.9407C-61.7393 34.6736 -61.5518 35.5486 -61.5518 36.5657V44.9009H-65.1825V37.2134C-65.1768 36.4122 -65.3814 35.7872 -65.7961 35.3384C-66.2109 34.8838 -66.7819 34.6566 -67.5092 34.6566C-67.9978 34.6566 -68.4296 34.7617 -68.8046 34.9719C-69.174 35.1821 -69.4637 35.4889 -69.674 35.8924C-69.8785 36.2901 -69.9836 36.7702 -69.9893 37.3327ZM-52.7926 50.0827C-53.9687 50.0827 -54.9772 49.9208 -55.8181 49.5969C-56.6534 49.2787 -57.3181 48.8441 -57.8125 48.2929C-58.3068 47.7418 -58.6278 47.1225 -58.7755 46.435L-55.4176 45.9833C-55.3153 46.2446 -55.1534 46.4889 -54.9318 46.7162C-54.7102 46.9435 -54.4176 47.1253 -54.0539 47.2617C-53.6846 47.4037 -53.2358 47.4747 -52.7073 47.4747C-51.9176 47.4747 -51.267 47.2816 -50.7556 46.8952C-50.2386 46.5145 -49.9801 45.8753 -49.9801 44.9776V42.5827H-50.1335C-50.2926 42.9463 -50.5312 43.2901 -50.8494 43.6139C-51.1676 43.9378 -51.5767 44.202 -52.0767 44.4066C-52.5767 44.6111 -53.1733 44.7134 -53.8664 44.7134C-54.8494 44.7134 -55.7443 44.4861 -56.5511 44.0316C-57.3522 43.5713 -57.9914 42.8696 -58.4687 41.9264C-58.9403 40.9776 -59.1761 39.7787 -59.1761 38.3299C-59.1761 36.8469 -58.9346 35.6083 -58.4517 34.6139C-57.9687 33.6196 -57.3267 32.8753 -56.5255 32.381C-55.7187 31.8867 -54.8352 31.6395 -53.875 31.6395C-53.142 31.6395 -52.5284 31.7645 -52.0341 32.0145C-51.5397 32.2588 -51.142 32.5657 -50.8409 32.935C-50.5341 33.2986 -50.2983 33.6566 -50.1335 34.0088H-49.9971V31.81H-46.392V45.0287C-46.392 46.1424 -46.6647 47.0742 -47.2102 47.8242C-47.7556 48.5742 -48.5113 49.1367 -49.4772 49.5117C-50.4375 49.8924 -51.5426 50.0827 -52.7926 50.0827ZM-52.7159 41.9861C-52.1306 41.9861 -51.6363 41.8412 -51.2329 41.5514C-50.8238 41.256 -50.5113 40.8355 -50.2954 40.2901C-50.0738 39.7389 -49.963 39.0799 -49.963 38.3128C-49.963 37.5458 -50.071 36.881 -50.2869 36.3185C-50.5028 35.7503 -50.8153 35.31 -51.2244 34.9975C-51.6335 34.685 -52.1306 34.5287 -52.7159 34.5287C-53.3125 34.5287 -53.8153 34.6907 -54.2244 35.0145C-54.6335 35.3327 -54.9431 35.7759 -55.1534 36.3441C-55.3636 36.9122 -55.4687 37.5685 -55.4687 38.3128C-55.4687 39.0685 -55.3636 39.7219 -55.1534 40.273C-54.9375 40.8185 -54.6278 41.2418 -54.2244 41.5429C-53.8153 41.8384 -53.3125 41.9861 -52.7159 41.9861ZM-27.0561 35.5429L-30.3799 35.7475C-30.4368 35.4634 -30.5589 35.2077 -30.7464 34.9804C-30.9339 34.7475 -31.1811 34.5628 -31.4879 34.4264C-31.789 34.2844 -32.1498 34.2134 -32.5703 34.2134C-33.1328 34.2134 -33.6072 34.3327 -33.9936 34.5713C-34.3799 34.8043 -34.5731 35.1168 -34.5731 35.5088C-34.5731 35.8213 -34.4481 36.0855 -34.1981 36.3014C-33.9481 36.5174 -33.5191 36.6907 -32.9112 36.8213L-30.5419 37.2986C-29.2691 37.56 -28.3203 37.9804 -27.6953 38.56C-27.0703 39.1395 -26.7578 39.9009 -26.7578 40.8441C-26.7578 41.702 -27.0106 42.4549 -27.5163 43.1026C-28.0163 43.7503 -28.7038 44.256 -29.5788 44.6196C-30.4481 44.9776 -31.451 45.1566 -32.5873 45.1566C-34.3203 45.1566 -35.701 44.7958 -36.7294 44.0742C-37.7521 43.3469 -38.3515 42.3583 -38.5277 41.1083L-34.9566 40.9208C-34.8487 41.4492 -34.5873 41.8526 -34.1725 42.131C-33.7578 42.4037 -33.2265 42.5401 -32.5788 42.5401C-31.9424 42.5401 -31.4311 42.4179 -31.0447 42.1736C-30.6527 41.9236 -30.4538 41.6026 -30.4481 41.2105C-30.4538 40.881 -30.593 40.6111 -30.8657 40.4009C-31.1385 40.185 -31.5589 40.0202 -32.1271 39.9066L-34.3941 39.4549C-35.6725 39.1992 -36.6243 38.756 -37.2493 38.1253C-37.8686 37.4946 -38.1782 36.6907 -38.1782 35.7134C-38.1782 34.8725 -37.951 34.148 -37.4964 33.5401C-37.0362 32.9321 -36.3913 32.4634 -35.5618 32.1338C-34.7265 31.8043 -33.7493 31.6395 -32.6299 31.6395C-30.9765 31.6395 -29.6754 31.9889 -28.7265 32.6878C-27.772 33.3867 -27.2152 34.3384 -27.0561 35.5429ZM-18.5568 45.1566C-19.8806 45.1566 -21.0255 44.8753 -21.9914 44.3128C-22.9517 43.7446 -23.6931 42.9549 -24.2159 41.9435C-24.7386 40.9264 -25 39.7475 -25 38.4066C-25 37.0543 -24.7386 35.8725 -24.2159 34.8611C-23.6931 33.8441 -22.9517 33.0543 -21.9914 32.4918C-21.0255 31.9236 -19.8806 31.6395 -18.5568 31.6395C-17.2329 31.6395 -16.0909 31.9236 -15.1306 32.4918C-14.1647 33.0543 -13.4204 33.8441 -12.8977 34.8611C-12.375 35.8725 -12.1136 37.0543 -12.1136 38.4066C-12.1136 39.7475 -12.375 40.9264 -12.8977 41.9435C-13.4204 42.9549 -14.1647 43.7446 -15.1306 44.3128C-16.0909 44.8753 -17.2329 45.1566 -18.5568 45.1566ZM-18.5397 42.3441C-17.9375 42.3441 -17.4346 42.1736 -17.0312 41.8327C-16.6278 41.4861 -16.3238 41.0145 -16.1193 40.4179C-15.9091 39.8213 -15.8039 39.1424 -15.8039 38.381C-15.8039 37.6196 -15.9091 36.9407 -16.1193 36.3441C-16.3238 35.7475 -16.6278 35.2759 -17.0312 34.9293C-17.4346 34.5827 -17.9375 34.4094 -18.5397 34.4094C-19.1477 34.4094 -19.6591 34.5827 -20.0738 34.9293C-20.4829 35.2759 -20.7926 35.7475 -21.0028 36.3441C-21.2073 36.9407 -21.3096 37.6196 -21.3096 38.381C-21.3096 39.1424 -21.2073 39.8213 -21.0028 40.4179C-20.7926 41.0145 -20.4829 41.4861 -20.0738 41.8327C-19.6591 42.1736 -19.1477 42.3441 -18.5397 42.3441ZM-3.83803 45.1566C-5.16189 45.1566 -6.30678 44.8753 -7.27269 44.3128C-8.23292 43.7446 -8.97439 42.9549 -9.49712 41.9435C-10.0198 40.9264 -10.2812 39.7475 -10.2812 38.4066C-10.2812 37.0543 -10.0198 35.8725 -9.49712 34.8611C-8.97439 33.8441 -8.23292 33.0543 -7.27269 32.4918C-6.30678 31.9236 -5.16189 31.6395 -3.83803 31.6395C-2.51417 31.6395 -1.37212 31.9236 -0.411895 32.4918C0.554014 33.0543 1.29833 33.8441 1.82106 34.8611C2.34379 35.8725 2.60515 37.0543 2.60515 38.4066C2.60515 39.7475 2.34379 40.9264 1.82106 41.9435C1.29833 42.9549 0.554014 43.7446 -0.411895 44.3128C-1.37212 44.8753 -2.51417 45.1566 -3.83803 45.1566ZM-3.82099 42.3441C-3.21871 42.3441 -2.71587 42.1736 -2.31246 41.8327C-1.90905 41.4861 -1.60508 41.0145 -1.40053 40.4179C-1.1903 39.8213 -1.08519 39.1424 -1.08519 38.381C-1.08519 37.6196 -1.1903 36.9407 -1.40053 36.3441C-1.60508 35.7475 -1.90905 35.2759 -2.31246 34.9293C-2.71587 34.5827 -3.21871 34.4094 -3.82099 34.4094C-4.42894 34.4094 -4.9403 34.5827 -5.35508 34.9293C-5.76417 35.2759 -6.07383 35.7475 -6.28405 36.3441C-6.4886 36.9407 -6.59087 37.6196 -6.59087 38.381C-6.59087 39.1424 -6.4886 39.8213 -6.28405 40.4179C-6.07383 41.0145 -5.76417 41.4861 -5.35508 41.8327C-4.9403 42.1736 -4.42894 42.3441 -3.82099 42.3441ZM8.59663 37.3327V44.9009H4.96595V31.81H8.42617V34.1196H8.57958C8.86935 33.3583 9.35515 32.756 10.037 32.3128C10.7188 31.8639 11.5455 31.6395 12.5171 31.6395C13.4262 31.6395 14.2188 31.8384 14.8949 32.2361C15.5711 32.6338 16.0966 33.202 16.4716 33.9407C16.8466 34.6736 17.0341 35.5486 17.0341 36.5657V44.9009H13.4034V37.2134C13.4091 36.4122 13.2046 35.7872 12.7898 35.3384C12.375 34.8838 11.804 34.6566 11.0767 34.6566C10.5881 34.6566 10.1563 34.7617 9.78129 34.9719C9.41197 35.1821 9.12219 35.4889 8.91197 35.8924C8.70742 36.2901 8.60231 36.7702 8.59663 37.3327ZM24.2337 27.4463L23.9013 39.6679L20.782 39.6679L20.4411 27.4463H24.2337ZM22.3417 45.1225C21.7792 45.1225 21.2962 44.9236 20.8928 44.5259C20.4894 44.1225 20.2905 43.6395 20.2962 43.077C20.2905 42.5202 20.4894 42.0429 20.8928 41.6452C21.2962 41.2475 21.7792 41.0486 22.3417 41.0486C22.8814 41.0486 23.3559 41.2475 23.7649 41.6452C24.174 42.0429 24.3814 42.5202 24.3871 43.077C24.3814 43.452 24.282 43.7958 24.0888 44.1083C23.9013 44.4151 23.6542 44.6622 23.3473 44.8497C23.0405 45.0316 22.7053 45.1225 22.3417 45.1225Z" fill="white"/>
<path d="M64.6535 33.5571H60.9205C60.8523 33.0742 60.7131 32.6452 60.5029 32.2702C60.2927 31.8895 60.0228 31.5657 59.6932 31.2986C59.3637 31.0316 58.983 30.827 58.5512 30.685C58.125 30.5429 57.662 30.4719 57.162 30.4719C56.2586 30.4719 55.4716 30.6963 54.8012 31.1452C54.1307 31.5884 53.6108 32.2361 53.2415 33.0884C52.8722 33.935 52.6875 34.9634 52.6875 36.1736C52.6875 37.4179 52.8722 38.4634 53.2415 39.31C53.6165 40.1566 54.1392 40.7958 54.8097 41.2276C55.4802 41.6594 56.2557 41.8753 57.1364 41.8753C57.6307 41.8753 58.0881 41.81 58.5086 41.6793C58.9347 41.5486 59.3125 41.3583 59.6421 41.1083C59.9716 40.8526 60.2444 40.5429 60.4603 40.1793C60.6819 39.8157 60.8353 39.4009 60.9205 38.935L64.6535 38.952C64.5569 39.7532 64.3154 40.5259 63.929 41.2702C63.5483 42.0088 63.0341 42.6708 62.3864 43.256C61.7444 43.8355 60.9773 44.2958 60.0853 44.6367C59.1989 44.9719 58.1961 45.1395 57.0767 45.1395C55.5199 45.1395 54.1279 44.7872 52.9006 44.0827C51.679 43.3782 50.7131 42.3583 50.0029 41.023C49.2983 39.6878 48.9461 38.0713 48.9461 36.1736C48.9461 34.2702 49.304 32.6509 50.0199 31.3157C50.7358 29.9804 51.7074 28.9634 52.9347 28.2645C54.162 27.56 55.5427 27.2077 57.0767 27.2077C58.0881 27.2077 59.0256 27.3497 59.8892 27.6338C60.7586 27.9179 61.5285 28.3327 62.1989 28.8782C62.8694 29.4179 63.4148 30.0799 63.8353 30.8639C64.2614 31.648 64.5341 32.5458 64.6535 33.5571ZM73.1463 45.1566C71.8225 45.1566 70.6776 44.8753 69.7117 44.3128C68.7515 43.7446 68.01 42.9549 67.4873 41.9435C66.9645 40.9264 66.7032 39.7475 66.7032 38.4066C66.7032 37.0543 66.9645 35.8725 67.4873 34.8611C68.01 33.8441 68.7515 33.0543 69.7117 32.4918C70.6776 31.9236 71.8225 31.6395 73.1463 31.6395C74.4702 31.6395 75.6123 31.9236 76.5725 32.4918C77.5384 33.0543 78.2827 33.8441 78.8054 34.8611C79.3282 35.8725 79.5895 37.0543 79.5895 38.4066C79.5895 39.7475 79.3282 40.9264 78.8054 41.9435C78.2827 42.9549 77.5384 43.7446 76.5725 44.3128C75.6123 44.8753 74.4702 45.1566 73.1463 45.1566ZM73.1634 42.3441C73.7657 42.3441 74.2685 42.1736 74.6719 41.8327C75.0753 41.4861 75.3793 41.0145 75.5838 40.4179C75.7941 39.8213 75.8992 39.1424 75.8992 38.381C75.8992 37.6196 75.7941 36.9407 75.5838 36.3441C75.3793 35.7475 75.0753 35.2759 74.6719 34.9293C74.2685 34.5827 73.7657 34.4094 73.1634 34.4094C72.5554 34.4094 72.0441 34.5827 71.6293 34.9293C71.2202 35.2759 70.9106 35.7475 70.7003 36.3441C70.4958 36.9407 70.3935 37.6196 70.3935 38.381C70.3935 39.1424 70.4958 39.8213 70.7003 40.4179C70.9106 41.0145 71.2202 41.4861 71.6293 41.8327C72.0441 42.1736 72.5554 42.3441 73.1634 42.3441ZM81.9503 44.9009V31.81H85.4106V34.1196H85.564C85.8367 33.3526 86.2912 32.7475 86.9276 32.3043C87.564 31.8611 88.3253 31.6395 89.2117 31.6395C90.1094 31.6395 90.8736 31.8639 91.5043 32.3128C92.135 32.756 92.5554 33.3583 92.7657 34.1196H92.902C93.1691 33.3696 93.652 32.7702 94.3509 32.3213C95.0554 31.8668 95.8878 31.6395 96.8481 31.6395C98.0696 31.6395 99.0611 32.0287 99.8225 32.8071C100.59 33.5799 100.973 34.6764 100.973 36.0969V44.9009H97.3509V36.8128C97.3509 36.0855 97.1577 35.5401 96.7713 35.1764C96.385 34.8128 95.902 34.631 95.3225 34.631C94.6634 34.631 94.1492 34.8412 93.7799 35.2617C93.4106 35.6764 93.2259 36.2247 93.2259 36.9066V44.9009H89.706V36.7361C89.706 36.0941 89.5213 35.5827 89.152 35.202C88.7884 34.8213 88.3083 34.631 87.7117 34.631C87.3083 34.631 86.9446 34.7333 86.6208 34.9378C86.3026 35.1367 86.0498 35.4179 85.8623 35.7816C85.6748 36.1395 85.581 36.56 85.581 37.0429V44.9009H81.9503ZM103.841 44.9009V31.81H107.472V44.9009H103.841ZM105.665 30.1225C105.125 30.1225 104.662 29.9435 104.276 29.5855C103.895 29.2219 103.705 28.7872 103.705 28.2816C103.705 27.7816 103.895 27.3526 104.276 26.9946C104.662 26.631 105.125 26.4492 105.665 26.4492C106.205 26.4492 106.665 26.631 107.045 26.9946C107.432 27.3526 107.625 27.7816 107.625 28.2816C107.625 28.7872 107.432 29.2219 107.045 29.5855C106.665 29.9435 106.205 30.1225 105.665 30.1225ZM114.011 37.3327V44.9009H110.38V31.81H113.84V34.1196H113.994C114.283 33.3583 114.769 32.756 115.451 32.3128C116.133 31.8639 116.96 31.6395 117.931 31.6395C118.84 31.6395 119.633 31.8384 120.309 32.2361C120.985 32.6338 121.511 33.202 121.886 33.9407C122.261 34.6736 122.448 35.5486 122.448 36.5657V44.9009H118.818V37.2134C118.823 36.4122 118.619 35.7872 118.204 35.3384C117.789 34.8838 117.218 34.6566 116.491 34.6566C116.002 34.6566 115.57 34.7617 115.195 34.9719C114.826 35.1821 114.536 35.4889 114.326 35.8924C114.121 36.2901 114.016 36.7702 114.011 37.3327ZM131.207 50.0827C130.031 50.0827 129.023 49.9208 128.182 49.5969C127.347 49.2787 126.682 48.8441 126.188 48.2929C125.693 47.7418 125.372 47.1225 125.224 46.435L128.582 45.9833C128.685 46.2446 128.847 46.4889 129.068 46.7162C129.29 46.9435 129.582 47.1253 129.946 47.2617C130.315 47.4037 130.764 47.4747 131.293 47.4747C132.082 47.4747 132.733 47.2816 133.244 46.8952C133.761 46.5145 134.02 45.8753 134.02 44.9776V42.5827H133.867C133.707 42.9463 133.469 43.2901 133.151 43.6139C132.832 43.9378 132.423 44.202 131.923 44.4066C131.423 44.6111 130.827 44.7134 130.134 44.7134C129.151 44.7134 128.256 44.4861 127.449 44.0316C126.648 43.5713 126.009 42.8696 125.531 41.9264C125.06 40.9776 124.824 39.7787 124.824 38.3299C124.824 36.8469 125.065 35.6083 125.548 34.6139C126.031 33.6196 126.673 32.8753 127.474 32.381C128.281 31.8867 129.165 31.6395 130.125 31.6395C130.858 31.6395 131.472 31.7645 131.966 32.0145C132.46 32.2588 132.858 32.5657 133.159 32.935C133.466 33.2986 133.702 33.6566 133.867 34.0088H134.003V31.81H137.608V45.0287C137.608 46.1424 137.335 47.0742 136.79 47.8242C136.244 48.5742 135.489 49.1367 134.523 49.5117C133.563 49.8924 132.457 50.0827 131.207 50.0827ZM131.284 41.9861C131.869 41.9861 132.364 41.8412 132.767 41.5514C133.176 41.256 133.489 40.8355 133.705 40.2901C133.926 39.7389 134.037 39.0799 134.037 38.3128C134.037 37.5458 133.929 36.881 133.713 36.3185C133.497 35.7503 133.185 35.31 132.776 34.9975C132.367 34.685 131.869 34.5287 131.284 34.5287C130.688 34.5287 130.185 34.6907 129.776 35.0145C129.367 35.3327 129.057 35.7759 128.847 36.3441C128.636 36.9122 128.531 37.5685 128.531 38.3128C128.531 39.0685 128.636 39.7219 128.847 40.273C129.063 40.8185 129.372 41.2418 129.776 41.5429C130.185 41.8384 130.688 41.9861 131.284 41.9861ZM156.944 35.5429L153.62 35.7475C153.563 35.4634 153.441 35.2077 153.254 34.9804C153.066 34.7475 152.819 34.5628 152.512 34.4264C152.211 34.2844 151.85 34.2134 151.43 34.2134C150.867 34.2134 150.393 34.3327 150.006 34.5713C149.62 34.8043 149.427 35.1168 149.427 35.5088C149.427 35.8213 149.552 36.0855 149.802 36.3014C150.052 36.5174 150.481 36.6907 151.089 36.8213L153.458 37.2986C154.731 37.56 155.68 37.9804 156.305 38.56C156.93 39.1395 157.242 39.9009 157.242 40.8441C157.242 41.702 156.989 42.4549 156.484 43.1026C155.984 43.7503 155.296 44.256 154.421 44.6196C153.552 44.9776 152.549 45.1566 151.413 45.1566C149.68 45.1566 148.299 44.7958 147.271 44.0742C146.248 43.3469 145.648 42.3583 145.472 41.1083L149.043 40.9208C149.151 41.4492 149.413 41.8526 149.827 42.131C150.242 42.4037 150.773 42.5401 151.421 42.5401C152.058 42.5401 152.569 42.4179 152.955 42.1736C153.347 41.9236 153.546 41.6026 153.552 41.2105C153.546 40.881 153.407 40.6111 153.134 40.4009C152.862 40.185 152.441 40.0202 151.873 39.9066L149.606 39.4549C148.327 39.1992 147.376 38.756 146.751 38.1253C146.131 37.4946 145.822 36.6907 145.822 35.7134C145.822 34.8725 146.049 34.148 146.504 33.5401C146.964 32.9321 147.609 32.4634 148.438 32.1338C149.273 31.8043 150.251 31.6395 151.37 31.6395C153.023 31.6395 154.325 31.9889 155.273 32.6878C156.228 33.3867 156.785 34.3384 156.944 35.5429ZM165.443 45.1566C164.119 45.1566 162.974 44.8753 162.009 44.3128C161.048 43.7446 160.307 42.9549 159.784 41.9435C159.261 40.9264 159 39.7475 159 38.4066C159 37.0543 159.261 35.8725 159.784 34.8611C160.307 33.8441 161.048 33.0543 162.009 32.4918C162.974 31.9236 164.119 31.6395 165.443 31.6395C166.767 31.6395 167.909 31.9236 168.869 32.4918C169.835 33.0543 170.58 33.8441 171.102 34.8611C171.625 35.8725 171.886 37.0543 171.886 38.4066C171.886 39.7475 171.625 40.9264 171.102 41.9435C170.58 42.9549 169.835 43.7446 168.869 44.3128C167.909 44.8753 166.767 45.1566 165.443 45.1566ZM165.46 42.3441C166.063 42.3441 166.565 42.1736 166.969 41.8327C167.372 41.4861 167.676 41.0145 167.881 40.4179C168.091 39.8213 168.196 39.1424 168.196 38.381C168.196 37.6196 168.091 36.9407 167.881 36.3441C167.676 35.7475 167.372 35.2759 166.969 34.9293C166.565 34.5827 166.063 34.4094 165.46 34.4094C164.852 34.4094 164.341 34.5827 163.926 34.9293C163.517 35.2759 163.207 35.7475 162.997 36.3441C162.793 36.9407 162.69 37.6196 162.69 38.381C162.69 39.1424 162.793 39.8213 162.997 40.4179C163.207 41.0145 163.517 41.4861 163.926 41.8327C164.341 42.1736 164.852 42.3441 165.46 42.3441ZM180.162 45.1566C178.838 45.1566 177.693 44.8753 176.727 44.3128C175.767 43.7446 175.026 42.9549 174.503 41.9435C173.98 40.9264 173.719 39.7475 173.719 38.4066C173.719 37.0543 173.98 35.8725 174.503 34.8611C175.026 33.8441 175.767 33.0543 176.727 32.4918C177.693 31.9236 178.838 31.6395 180.162 31.6395C181.486 31.6395 182.628 31.9236 183.588 32.4918C184.554 33.0543 185.298 33.8441 185.821 34.8611C186.344 35.8725 186.605 37.0543 186.605 38.4066C186.605 39.7475 186.344 40.9264 185.821 41.9435C185.298 42.9549 184.554 43.7446 183.588 44.3128C182.628 44.8753 181.486 45.1566 180.162 45.1566ZM180.179 42.3441C180.781 42.3441 181.284 42.1736 181.688 41.8327C182.091 41.4861 182.395 41.0145 182.599 40.4179C182.81 39.8213 182.915 39.1424 182.915 38.381C182.915 37.6196 182.81 36.9407 182.599 36.3441C182.395 35.7475 182.091 35.2759 181.688 34.9293C181.284 34.5827 180.781 34.4094 180.179 34.4094C179.571 34.4094 179.06 34.5827 178.645 34.9293C178.236 35.2759 177.926 35.7475 177.716 36.3441C177.511 36.9407 177.409 37.6196 177.409 38.381C177.409 39.1424 177.511 39.8213 177.716 40.4179C177.926 41.0145 178.236 41.4861 178.645 41.8327C179.06 42.1736 179.571 42.3441 180.179 42.3441ZM192.597 37.3327V44.9009H188.966V31.81H192.426V34.1196H192.58C192.869 33.3583 193.355 32.756 194.037 32.3128C194.719 31.8639 195.545 31.6395 196.517 31.6395C197.426 31.6395 198.219 31.8384 198.895 32.2361C199.571 32.6338 200.097 33.202 200.472 33.9407C200.847 34.6736 201.034 35.5486 201.034 36.5657V44.9009H197.403V37.2134C197.409 36.4122 197.205 35.7872 196.79 35.3384C196.375 34.8838 195.804 34.6566 195.077 34.6566C194.588 34.6566 194.156 34.7617 193.781 34.9719C193.412 35.1821 193.122 35.4889 192.912 35.8924C192.707 36.2901 192.602 36.7702 192.597 37.3327ZM208.234 27.4463L207.901 39.6679L204.782 39.6679L204.441 27.4463H208.234ZM206.342 45.1225C205.779 45.1225 205.296 44.9236 204.893 44.5259C204.489 44.1225 204.291 43.6395 204.296 43.077C204.291 42.5202 204.489 42.0429 204.893 41.6452C205.296 41.2475 205.779 41.0486 206.342 41.0486C206.881 41.0486 207.356 41.2475 207.765 41.6452C208.174 42.0429 208.381 42.5202 208.387 43.077C208.381 43.452 208.282 43.7958 208.089 44.1083C207.901 44.4151 207.654 44.6622 207.347 44.8497C207.041 45.0316 206.705 45.1225 206.342 45.1225Z" fill="white"/>
<path d="M248.653 33.5571H244.92C244.852 33.0742 244.713 32.6452 244.503 32.2702C244.293 31.8895 244.023 31.5657 243.693 31.2986C243.364 31.0316 242.983 30.827 242.551 30.685C242.125 30.5429 241.662 30.4719 241.162 30.4719C240.259 30.4719 239.472 30.6963 238.801 31.1452C238.131 31.5884 237.611 32.2361 237.242 33.0884C236.872 33.935 236.688 34.9634 236.688 36.1736C236.688 37.4179 236.872 38.4634 237.242 39.31C237.617 40.1566 238.139 40.7958 238.81 41.2276C239.48 41.6594 240.256 41.8753 241.136 41.8753C241.631 41.8753 242.088 41.81 242.509 41.6793C242.935 41.5486 243.313 41.3583 243.642 41.1083C243.972 40.8526 244.244 40.5429 244.46 40.1793C244.682 39.8157 244.835 39.4009 244.92 38.935L248.653 38.952C248.557 39.7532 248.315 40.5259 247.929 41.2702C247.548 42.0088 247.034 42.6708 246.386 43.256C245.744 43.8355 244.977 44.2958 244.085 44.6367C243.199 44.9719 242.196 45.1395 241.077 45.1395C239.52 45.1395 238.128 44.7872 236.901 44.0827C235.679 43.3782 234.713 42.3583 234.003 41.023C233.298 39.6878 232.946 38.0713 232.946 36.1736C232.946 34.2702 233.304 32.6509 234.02 31.3157C234.736 29.9804 235.707 28.9634 236.935 28.2645C238.162 27.56 239.543 27.2077 241.077 27.2077C242.088 27.2077 243.026 27.3497 243.889 27.6338C244.759 27.9179 245.528 28.3327 246.199 28.8782C246.869 29.4179 247.415 30.0799 247.835 30.8639C248.261 31.648 248.534 32.5458 248.653 33.5571ZM257.146 45.1566C255.822 45.1566 254.678 44.8753 253.712 44.3128C252.751 43.7446 252.01 42.9549 251.487 41.9435C250.965 40.9264 250.703 39.7475 250.703 38.4066C250.703 37.0543 250.965 35.8725 251.487 34.8611C252.01 33.8441 252.751 33.0543 253.712 32.4918C254.678 31.9236 255.822 31.6395 257.146 31.6395C258.47 31.6395 259.612 31.9236 260.572 32.4918C261.538 33.0543 262.283 33.8441 262.805 34.8611C263.328 35.8725 263.59 37.0543 263.59 38.4066C263.59 39.7475 263.328 40.9264 262.805 41.9435C262.283 42.9549 261.538 43.7446 260.572 44.3128C259.612 44.8753 258.47 45.1566 257.146 45.1566ZM257.163 42.3441C257.766 42.3441 258.269 42.1736 258.672 41.8327C259.075 41.4861 259.379 41.0145 259.584 40.4179C259.794 39.8213 259.899 39.1424 259.899 38.381C259.899 37.6196 259.794 36.9407 259.584 36.3441C259.379 35.7475 259.075 35.2759 258.672 34.9293C258.269 34.5827 257.766 34.4094 257.163 34.4094C256.555 34.4094 256.044 34.5827 255.629 34.9293C255.22 35.2759 254.911 35.7475 254.7 36.3441C254.496 36.9407 254.394 37.6196 254.394 38.381C254.394 39.1424 254.496 39.8213 254.7 40.4179C254.911 41.0145 255.22 41.4861 255.629 41.8327C256.044 42.1736 256.555 42.3441 257.163 42.3441ZM265.95 44.9009V31.81H269.411V34.1196H269.564C269.837 33.3526 270.291 32.7475 270.928 32.3043C271.564 31.8611 272.325 31.6395 273.212 31.6395C274.109 31.6395 274.874 31.8639 275.504 32.3128C276.135 32.756 276.555 33.3583 276.766 34.1196H276.902C277.169 33.3696 277.652 32.7702 278.351 32.3213C279.055 31.8668 279.888 31.6395 280.848 31.6395C282.07 31.6395 283.061 32.0287 283.822 32.8071C284.59 33.5799 284.973 34.6764 284.973 36.0969V44.9009H281.351V36.8128C281.351 36.0855 281.158 35.5401 280.771 35.1764C280.385 34.8128 279.902 34.631 279.322 34.631C278.663 34.631 278.149 34.8412 277.78 35.2617C277.411 35.6764 277.226 36.2247 277.226 36.9066V44.9009H273.706V36.7361C273.706 36.0941 273.521 35.5827 273.152 35.202C272.788 34.8213 272.308 34.631 271.712 34.631C271.308 34.631 270.945 34.7333 270.621 34.9378C270.303 35.1367 270.05 35.4179 269.862 35.7816C269.675 36.1395 269.581 36.56 269.581 37.0429V44.9009H265.95ZM287.841 44.9009V31.81H291.472V44.9009H287.841ZM289.665 30.1225C289.125 30.1225 288.662 29.9435 288.276 29.5855C287.895 29.2219 287.705 28.7872 287.705 28.2816C287.705 27.7816 287.895 27.3526 288.276 26.9946C288.662 26.631 289.125 26.4492 289.665 26.4492C290.205 26.4492 290.665 26.631 291.045 26.9946C291.432 27.3526 291.625 27.7816 291.625 28.2816C291.625 28.7872 291.432 29.2219 291.045 29.5855C290.665 29.9435 290.205 30.1225 289.665 30.1225ZM298.011 37.3327V44.9009H294.38V31.81H297.84V34.1196H297.994C298.283 33.3583 298.769 32.756 299.451 32.3128C300.133 31.8639 300.96 31.6395 301.931 31.6395C302.84 31.6395 303.633 31.8384 304.309 32.2361C304.985 32.6338 305.511 33.202 305.886 33.9407C306.261 34.6736 306.448 35.5486 306.448 36.5657V44.9009H302.818V37.2134C302.823 36.4122 302.619 35.7872 302.204 35.3384C301.789 34.8838 301.218 34.6566 300.491 34.6566C300.002 34.6566 299.57 34.7617 299.195 34.9719C298.826 35.1821 298.536 35.4889 298.326 35.8924C298.121 36.2901 298.016 36.7702 298.011 37.3327ZM315.207 50.0827C314.031 50.0827 313.023 49.9208 312.182 49.5969C311.347 49.2787 310.682 48.8441 310.188 48.2929C309.693 47.7418 309.372 47.1225 309.224 46.435L312.582 45.9833C312.685 46.2446 312.847 46.4889 313.068 46.7162C313.29 46.9435 313.582 47.1253 313.946 47.2617C314.315 47.4037 314.764 47.4747 315.293 47.4747C316.082 47.4747 316.733 47.2816 317.244 46.8952C317.761 46.5145 318.02 45.8753 318.02 44.9776V42.5827H317.867C317.707 42.9463 317.469 43.2901 317.151 43.6139C316.832 43.9378 316.423 44.202 315.923 44.4066C315.423 44.6111 314.827 44.7134 314.134 44.7134C313.151 44.7134 312.256 44.4861 311.449 44.0316C310.648 43.5713 310.009 42.8696 309.531 41.9264C309.06 40.9776 308.824 39.7787 308.824 38.3299C308.824 36.8469 309.065 35.6083 309.548 34.6139C310.031 33.6196 310.673 32.8753 311.474 32.381C312.281 31.8867 313.165 31.6395 314.125 31.6395C314.858 31.6395 315.472 31.7645 315.966 32.0145C316.46 32.2588 316.858 32.5657 317.159 32.935C317.466 33.2986 317.702 33.6566 317.867 34.0088H318.003V31.81H321.608V45.0287C321.608 46.1424 321.335 47.0742 320.79 47.8242C320.244 48.5742 319.489 49.1367 318.523 49.5117C317.563 49.8924 316.457 50.0827 315.207 50.0827ZM315.284 41.9861C315.869 41.9861 316.364 41.8412 316.767 41.5514C317.176 41.256 317.489 40.8355 317.705 40.2901C317.926 39.7389 318.037 39.0799 318.037 38.3128C318.037 37.5458 317.929 36.881 317.713 36.3185C317.497 35.7503 317.185 35.31 316.776 34.9975C316.367 34.685 315.869 34.5287 315.284 34.5287C314.688 34.5287 314.185 34.6907 313.776 35.0145C313.367 35.3327 313.057 35.7759 312.847 36.3441C312.636 36.9122 312.531 37.5685 312.531 38.3128C312.531 39.0685 312.636 39.7219 312.847 40.273C313.063 40.8185 313.372 41.2418 313.776 41.5429C314.185 41.8384 314.688 41.9861 315.284 41.9861ZM340.944 35.5429L337.62 35.7475C337.563 35.4634 337.441 35.2077 337.254 34.9804C337.066 34.7475 336.819 34.5628 336.512 34.4264C336.211 34.2844 335.85 34.2134 335.43 34.2134C334.867 34.2134 334.393 34.3327 334.006 34.5713C333.62 34.8043 333.427 35.1168 333.427 35.5088C333.427 35.8213 333.552 36.0855 333.802 36.3014C334.052 36.5174 334.481 36.6907 335.089 36.8213L337.458 37.2986C338.731 37.56 339.68 37.9804 340.305 38.56C340.93 39.1395 341.242 39.9009 341.242 40.8441C341.242 41.702 340.989 42.4549 340.484 43.1026C339.984 43.7503 339.296 44.256 338.421 44.6196C337.552 44.9776 336.549 45.1566 335.413 45.1566C333.68 45.1566 332.299 44.7958 331.271 44.0742C330.248 43.3469 329.648 42.3583 329.472 41.1083L333.043 40.9208C333.151 41.4492 333.413 41.8526 333.827 42.131C334.242 42.4037 334.773 42.5401 335.421 42.5401C336.058 42.5401 336.569 42.4179 336.955 42.1736C337.347 41.9236 337.546 41.6026 337.552 41.2105C337.546 40.881 337.407 40.6111 337.134 40.4009C336.862 40.185 336.441 40.0202 335.873 39.9066L333.606 39.4549C332.327 39.1992 331.376 38.756 330.751 38.1253C330.131 37.4946 329.822 36.6907 329.822 35.7134C329.822 34.8725 330.049 34.148 330.504 33.5401C330.964 32.9321 331.609 32.4634 332.438 32.1338C333.273 31.8043 334.251 31.6395 335.37 31.6395C337.023 31.6395 338.325 31.9889 339.273 32.6878C340.228 33.3867 340.785 34.3384 340.944 35.5429ZM349.443 45.1566C348.119 45.1566 346.974 44.8753 346.009 44.3128C345.048 43.7446 344.307 42.9549 343.784 41.9435C343.261 40.9264 343 39.7475 343 38.4066C343 37.0543 343.261 35.8725 343.784 34.8611C344.307 33.8441 345.048 33.0543 346.009 32.4918C346.974 31.9236 348.119 31.6395 349.443 31.6395C350.767 31.6395 351.909 31.9236 352.869 32.4918C353.835 33.0543 354.58 33.8441 355.102 34.8611C355.625 35.8725 355.886 37.0543 355.886 38.4066C355.886 39.7475 355.625 40.9264 355.102 41.9435C354.58 42.9549 353.835 43.7446 352.869 44.3128C351.909 44.8753 350.767 45.1566 349.443 45.1566ZM349.46 42.3441C350.063 42.3441 350.565 42.1736 350.969 41.8327C351.372 41.4861 351.676 41.0145 351.881 40.4179C352.091 39.8213 352.196 39.1424 352.196 38.381C352.196 37.6196 352.091 36.9407 351.881 36.3441C351.676 35.7475 351.372 35.2759 350.969 34.9293C350.565 34.5827 350.063 34.4094 349.46 34.4094C348.852 34.4094 348.341 34.5827 347.926 34.9293C347.517 35.2759 347.207 35.7475 346.997 36.3441C346.793 36.9407 346.69 37.6196 346.69 38.381C346.69 39.1424 346.793 39.8213 346.997 40.4179C347.207 41.0145 347.517 41.4861 347.926 41.8327C348.341 42.1736 348.852 42.3441 349.46 42.3441ZM364.162 45.1566C362.838 45.1566 361.693 44.8753 360.727 44.3128C359.767 43.7446 359.026 42.9549 358.503 41.9435C357.98 40.9264 357.719 39.7475 357.719 38.4066C357.719 37.0543 357.98 35.8725 358.503 34.8611C359.026 33.8441 359.767 33.0543 360.727 32.4918C361.693 31.9236 362.838 31.6395 364.162 31.6395C365.486 31.6395 366.628 31.9236 367.588 32.4918C368.554 33.0543 369.298 33.8441 369.821 34.8611C370.344 35.8725 370.605 37.0543 370.605 38.4066C370.605 39.7475 370.344 40.9264 369.821 41.9435C369.298 42.9549 368.554 43.7446 367.588 44.3128C366.628 44.8753 365.486 45.1566 364.162 45.1566ZM364.179 42.3441C364.781 42.3441 365.284 42.1736 365.688 41.8327C366.091 41.4861 366.395 41.0145 366.599 40.4179C366.81 39.8213 366.915 39.1424 366.915 38.381C366.915 37.6196 366.81 36.9407 366.599 36.3441C366.395 35.7475 366.091 35.2759 365.688 34.9293C365.284 34.5827 364.781 34.4094 364.179 34.4094C363.571 34.4094 363.06 34.5827 362.645 34.9293C362.236 35.2759 361.926 35.7475 361.716 36.3441C361.511 36.9407 361.409 37.6196 361.409 38.381C361.409 39.1424 361.511 39.8213 361.716 40.4179C361.926 41.0145 362.236 41.4861 362.645 41.8327C363.06 42.1736 363.571 42.3441 364.179 42.3441ZM376.597 37.3327V44.9009H372.966V31.81H376.426V34.1196H376.58C376.869 33.3583 377.355 32.756 378.037 32.3128C378.719 31.8639 379.545 31.6395 380.517 31.6395C381.426 31.6395 382.219 31.8384 382.895 32.2361C383.571 32.6338 384.097 33.202 384.472 33.9407C384.847 34.6736 385.034 35.5486 385.034 36.5657V44.9009H381.403V37.2134C381.409 36.4122 381.205 35.7872 380.79 35.3384C380.375 34.8838 379.804 34.6566 379.077 34.6566C378.588 34.6566 378.156 34.7617 377.781 34.9719C377.412 35.1821 377.122 35.4889 376.912 35.8924C376.707 36.2901 376.602 36.7702 376.597 37.3327ZM392.234 27.4463L391.901 39.6679L388.782 39.6679L388.441 27.4463H392.234ZM390.342 45.1225C389.779 45.1225 389.296 44.9236 388.893 44.5259C388.489 44.1225 388.291 43.6395 388.296 43.077C388.291 42.5202 388.489 42.0429 388.893 41.6452C389.296 41.2475 389.779 41.0486 390.342 41.0486C390.881 41.0486 391.356 41.2475 391.765 41.6452C392.174 42.0429 392.381 42.5202 392.387 43.077C392.381 43.452 392.282 43.7958 392.089 44.1083C391.901 44.4151 391.654 44.6622 391.347 44.8497C391.041 45.0316 390.705 45.1225 390.342 45.1225Z" fill="white"/>
</g>
</svg>
