<svg width="121" height="32" viewBox="0 0 121 32" fill="none" xmlns="http://www.w3.org/2000/svg">
<g filter="url(#filter0_i_22_483)">
<rect y="0.769287" width="121" height="31" rx="15.5" fill="#A601C2"/>
<path d="M39.2074 14.8801H37.8778C37.8267 14.596 37.7315 14.346 37.5923 14.1301C37.4531 13.9142 37.2827 13.7309 37.081 13.5804C36.8793 13.4298 36.6534 13.3162 36.4034 13.2395C36.1563 13.1628 35.8935 13.1244 35.6151 13.1244C35.1122 13.1244 34.6619 13.2508 34.2642 13.5037C33.8693 13.7565 33.5568 14.1272 33.3267 14.6159C33.0994 15.1045 32.9858 15.7011 32.9858 16.4057C32.9858 17.1159 33.0994 17.7153 33.3267 18.2039C33.5568 18.6926 33.8707 19.0619 34.2685 19.3119C34.6662 19.5619 35.1136 19.6869 35.6108 19.6869C35.8864 19.6869 36.1477 19.65 36.3949 19.5761C36.6449 19.4994 36.8707 19.3872 37.0724 19.2395C37.2741 19.0917 37.4446 18.9113 37.5838 18.6983C37.7259 18.4824 37.8239 18.2352 37.8778 17.9568L39.2074 17.961C39.1364 18.39 38.9986 18.7849 38.794 19.1457C38.5923 19.5037 38.3324 19.8133 38.0142 20.0747C37.6989 20.3332 37.3381 20.5335 36.9318 20.6755C36.5256 20.8176 36.0824 20.8886 35.6023 20.8886C34.8466 20.8886 34.1733 20.7096 33.5824 20.3517C32.9915 19.9909 32.5256 19.4753 32.1847 18.8048C31.8466 18.1343 31.6776 17.3346 31.6776 16.4057C31.6776 15.4738 31.848 14.6741 32.1889 14.0065C32.5298 13.336 32.9957 12.8218 33.5866 12.4639C34.1776 12.1031 34.8494 11.9227 35.6023 11.9227C36.0653 11.9227 36.4972 11.9895 36.8977 12.123C37.3011 12.2537 37.6634 12.4468 37.9844 12.7025C38.3054 12.9554 38.571 13.265 38.7812 13.6315C38.9915 13.9951 39.1335 14.4113 39.2074 14.8801ZM43.6779 20.9014C43.0642 20.9014 42.5287 20.7608 42.0713 20.4795C41.6139 20.1983 41.2588 19.8048 41.006 19.2991C40.7531 18.7934 40.6267 18.2025 40.6267 17.5264C40.6267 16.8474 40.7531 16.2537 41.006 15.7451C41.2588 15.2366 41.6139 14.8417 42.0713 14.5605C42.5287 14.2792 43.0642 14.1386 43.6779 14.1386C44.2915 14.1386 44.827 14.2792 45.2844 14.5605C45.7418 14.8417 46.0969 15.2366 46.3497 15.7451C46.6026 16.2537 46.729 16.8474 46.729 17.5264C46.729 18.2025 46.6026 18.7934 46.3497 19.2991C46.0969 19.8048 45.7418 20.1983 45.2844 20.4795C44.827 20.7608 44.2915 20.9014 43.6779 20.9014ZM43.6821 19.8318C44.0798 19.8318 44.4094 19.7267 44.6708 19.5164C44.9321 19.3062 45.1253 19.0264 45.2503 18.677C45.3781 18.3275 45.4421 17.9426 45.4421 17.5221C45.4421 17.1045 45.3781 16.721 45.2503 16.3716C45.1253 16.0193 44.9321 15.7366 44.6708 15.5235C44.4094 15.3105 44.0798 15.2039 43.6821 15.2039C43.2815 15.2039 42.9492 15.3105 42.685 15.5235C42.4236 15.7366 42.229 16.0193 42.1012 16.3716C41.9762 16.721 41.9137 17.1045 41.9137 17.5221C41.9137 17.9426 41.9762 18.3275 42.1012 18.677C42.229 19.0264 42.4236 19.3062 42.685 19.5164C42.9492 19.7267 43.2815 19.8318 43.6821 19.8318ZM51.1483 20.9014C50.5347 20.9014 49.9992 20.7608 49.5418 20.4795C49.0844 20.1983 48.7293 19.8048 48.4764 19.2991C48.2236 18.7934 48.0972 18.2025 48.0972 17.5264C48.0972 16.8474 48.2236 16.2537 48.4764 15.7451C48.7293 15.2366 49.0844 14.8417 49.5418 14.5605C49.9992 14.2792 50.5347 14.1386 51.1483 14.1386C51.762 14.1386 52.2975 14.2792 52.7549 14.5605C53.2122 14.8417 53.5674 15.2366 53.8202 15.7451C54.073 16.2537 54.1995 16.8474 54.1995 17.5264C54.1995 18.2025 54.073 18.7934 53.8202 19.2991C53.5674 19.8048 53.2122 20.1983 52.7549 20.4795C52.2975 20.7608 51.762 20.9014 51.1483 20.9014ZM51.1526 19.8318C51.5503 19.8318 51.8799 19.7267 52.1412 19.5164C52.4026 19.3062 52.5958 19.0264 52.7208 18.677C52.8486 18.3275 52.9125 17.9426 52.9125 17.5221C52.9125 17.1045 52.8486 16.721 52.7208 16.3716C52.5958 16.0193 52.4026 15.7366 52.1412 15.5235C51.8799 15.3105 51.5503 15.2039 51.1526 15.2039C50.752 15.2039 50.4196 15.3105 50.1554 15.5235C49.8941 15.7366 49.6995 16.0193 49.5716 16.3716C49.4466 16.721 49.3841 17.1045 49.3841 17.5221C49.3841 17.9426 49.4466 18.3275 49.5716 18.677C49.6995 19.0264 49.8941 19.3062 50.1554 19.5164C50.4196 19.7267 50.752 19.8318 51.1526 19.8318ZM57.0336 18.5491L57.025 16.9937H57.2466L59.8546 14.2238H61.3802L58.4057 17.3772H58.2054L57.0336 18.5491ZM55.8617 20.7693V12.042H57.1358V20.7693H55.8617ZM59.9952 20.7693L57.6515 17.6585L58.5293 16.7679L61.5591 20.7693H59.9952ZM67.4713 16.8829V20.7693H66.1972V14.2238H67.4202V15.2892H67.5011C67.6517 14.9426 67.8875 14.6642 68.2085 14.4539C68.5324 14.2437 68.9401 14.1386 69.4315 14.1386C69.8776 14.1386 70.2682 14.2324 70.6034 14.4199C70.9386 14.6045 71.1986 14.8801 71.3832 15.2466C71.5679 15.613 71.6602 16.0662 71.6602 16.6059V20.7693H70.3861V16.7593C70.3861 16.2849 70.2625 15.9142 70.0153 15.6471C69.7682 15.3772 69.4287 15.2423 68.9969 15.2423C68.7014 15.2423 68.4386 15.3062 68.2085 15.4341C67.9813 15.5619 67.8009 15.7494 67.6673 15.9966C67.5366 16.2409 67.4713 16.5363 67.4713 16.8829ZM76.3661 20.9014C75.7525 20.9014 75.217 20.7608 74.7596 20.4795C74.3022 20.1983 73.9471 19.8048 73.6943 19.2991C73.4414 18.7934 73.315 18.2025 73.315 17.5264C73.315 16.8474 73.4414 16.2537 73.6943 15.7451C73.9471 15.2366 74.3022 14.8417 74.7596 14.5605C75.217 14.2792 75.7525 14.1386 76.3661 14.1386C76.9798 14.1386 77.5153 14.2792 77.9727 14.5605C78.4301 14.8417 78.7852 15.2366 79.038 15.7451C79.2909 16.2537 79.4173 16.8474 79.4173 17.5264C79.4173 18.2025 79.2909 18.7934 79.038 19.2991C78.7852 19.8048 78.4301 20.1983 77.9727 20.4795C77.5153 20.7608 76.9798 20.9014 76.3661 20.9014ZM76.3704 19.8318C76.7681 19.8318 77.0977 19.7267 77.359 19.5164C77.6204 19.3062 77.8136 19.0264 77.9386 18.677C78.0664 18.3275 78.1303 17.9426 78.1303 17.5221C78.1303 17.1045 78.0664 16.721 77.9386 16.3716C77.8136 16.0193 77.6204 15.7366 77.359 15.5235C77.0977 15.3105 76.7681 15.2039 76.3704 15.2039C75.9698 15.2039 75.6374 15.3105 75.3732 15.5235C75.1119 15.7366 74.9173 16.0193 74.7894 16.3716C74.6644 16.721 74.6019 17.1045 74.6019 17.5221C74.6019 17.9426 74.6644 18.3275 74.7894 18.677C74.9173 19.0264 75.1119 19.3062 75.3732 19.5164C75.6374 19.7267 75.9698 19.8318 76.3704 19.8318ZM82.2993 20.7693L80.3732 14.2238H81.6899L82.9726 19.0307H83.0365L84.3235 14.2238H85.6402L86.9186 19.0093H86.9826L88.2567 14.2238H89.5735L87.6516 20.7693H86.3519L85.0223 16.0434H84.9243L83.5948 20.7693H82.2993Z" fill="white"/>
</g>
<defs>
<filter id="filter0_i_22_483" x="0" y="0.769287" width="121" height="34" filterUnits="userSpaceOnUse" color-interpolation-filters="sRGB">
<feFlood flood-opacity="0" result="BackgroundImageFix"/>
<feBlend mode="normal" in="SourceGraphic" in2="BackgroundImageFix" result="shape"/>
<feColorMatrix in="SourceAlpha" type="matrix" values="0 0 0 0 0 0 0 0 0 0 0 0 0 0 0 0 0 0 127 0" result="hardAlpha"/>
<feOffset dy="5"/>
<feGaussianBlur stdDeviation="1.5"/>
<feComposite in2="hardAlpha" operator="arithmetic" k2="-1" k3="1"/>
<feColorMatrix type="matrix" values="0 0 0 0 1 0 0 0 0 1 0 0 0 0 1 0 0 0 0.17 0"/>
<feBlend mode="normal" in2="shape" result="effect1_innerShadow_22_483"/>
</filter>
</defs>
</svg>
