<svg width="10" height="13" viewBox="0 0 10 13" fill="none" xmlns="http://www.w3.org/2000/svg">
<path d="M8.4883 4.93464C8.15647 4.05364 7.67261 3.23769 7.05875 2.52393C5.99643 1.2942 4.59955 0.5 3.5 0.5C3.43462 0.500049 3.37012 0.515056 3.31143 0.543872C3.25274 0.572688 3.20142 0.61455 3.16141 0.666252C3.12139 0.717955 3.09373 0.778129 3.08055 0.842167C3.06737 0.906205 3.06901 0.97241 3.08536 1.03571C3.45687 2.45536 2.68679 3.6358 1.8717 4.88536C1.19643 5.92036 0.5 6.98938 0.5 8.21429C0.5 10.5773 2.42268 12.5 4.78571 12.5C7.14875 12.5 9.07143 10.5773 9.07143 8.21429C9.07143 7.05446 8.87536 5.95116 8.4883 4.93464ZM5.6517 10.8578C5.375 11.1524 5.02812 11.2143 4.78571 11.2143C4.5433 11.2143 4.19643 11.1524 3.91973 10.8578C3.64304 10.5631 3.5 10.0957 3.5 9.5C3.5 8.82661 3.73625 8.31393 3.96446 7.81839C4.09705 7.53071 4.23232 7.23795 4.31268 6.92455C4.32121 6.89046 4.338 6.859 4.36155 6.83292C4.38511 6.80685 4.41472 6.78697 4.44777 6.77503C4.48083 6.7631 4.51631 6.75947 4.55109 6.76448C4.58587 6.76949 4.61889 6.78298 4.64723 6.80375C4.89222 6.9933 5.11005 7.21555 5.29464 7.46429C5.78134 8.10714 6.07143 8.86839 6.07143 9.5C6.07143 10.0957 5.92625 10.5653 5.6517 10.8578Z" fill="#1A1A1A"/>
</svg>
