<svg width="13" height="13" viewBox="0 0 13 13" fill="none" xmlns="http://www.w3.org/2000/svg">
<path d="M7.51561 6.41832L6.08353 4.9865C6.05419 4.95706 6.01933 4.93371 5.98095 4.91777C5.94256 4.90183 5.90141 4.89362 5.85985 4.89362C5.81829 4.89362 5.77713 4.90183 5.73875 4.91777C5.70037 4.93371 5.66551 4.95706 5.63617 4.9865L0.0991596 10.2104C0.0684547 10.2393 0.0438634 10.2741 0.0268387 10.3127C0.009814 10.3513 0.000701257 10.393 3.89031e-05 10.4352C-0.000623451 10.4774 0.00717802 10.5193 0.0229824 10.5584C0.0387867 10.5975 0.0622733 10.6331 0.0920544 10.663L1.83018 12.4072C1.86002 12.4371 1.89556 12.4607 1.9347 12.4767C1.97384 12.4926 2.01578 12.5005 2.05804 12.5C2.10029 12.4994 2.14201 12.4904 2.18071 12.4734C2.21941 12.4564 2.2543 12.4318 2.28333 12.4011L7.51508 6.86542C7.54452 6.83612 7.56788 6.8013 7.58384 6.76296C7.5998 6.72462 7.60804 6.68351 7.60809 6.64198C7.60814 6.60045 7.6 6.55932 7.58413 6.52094C7.56826 6.48256 7.54497 6.44769 7.51561 6.41832ZM12.9116 4.90335L11.7566 3.75652C11.7038 3.70387 11.641 3.66221 11.572 3.63393C11.503 3.60566 11.4291 3.59134 11.3545 3.59179C11.2336 3.5919 11.1159 3.63002 11.0179 3.70074C11.0179 3.68942 11.0195 3.67837 11.0203 3.66863C11.0321 3.49758 11.0505 3.23917 10.8834 3.00496C10.6848 2.73717 10.4666 2.48439 10.2308 2.24866C10.2302 2.24789 10.2295 2.24719 10.2287 2.24655C9.8782 1.90129 9.11532 1.25104 7.94665 0.774471C7.50324 0.592683 7.02854 0.49944 6.54931 0.500003C5.7188 0.500003 5.08723 0.874733 4.84539 1.09683C4.60725 1.31414 4.45106 1.60672 4.40303 1.9255L4.82408 2.18418C4.82408 2.18418 5.03618 2.13155 5.18881 2.09497C5.34826 2.06097 5.51188 2.05077 5.67433 2.06471C6.02142 2.0934 6.43194 2.26576 6.61352 2.40918C6.92141 2.65681 7.06956 2.99049 7.09404 3.49048C7.0993 3.60179 6.84352 4.05231 6.45826 4.53888C6.42622 4.57933 6.41015 4.63015 6.41311 4.68167C6.41607 4.73319 6.43785 4.78183 6.47431 4.81835L7.66824 6.01227C7.70649 6.05019 7.75782 6.07201 7.81166 6.07323C7.86551 6.07445 7.91777 6.05499 7.95771 6.01885C8.27533 5.72938 8.76006 5.28202 8.87006 5.21387C9.07242 5.0894 9.21716 5.06545 9.2569 5.06124C9.36001 5.05113 9.46374 5.07299 9.55399 5.12387C9.55444 5.12837 9.55395 5.13292 9.55255 5.13723C9.55114 5.14153 9.54886 5.1455 9.54584 5.14887L9.49794 5.19439L9.49005 5.20176C9.43713 5.25449 9.39516 5.31716 9.36657 5.38617C9.33797 5.45518 9.32331 5.52917 9.32344 5.60387C9.32356 5.67857 9.33846 5.75251 9.36728 5.82143C9.3961 5.89035 9.43827 5.95288 9.49136 6.00543L10.6479 7.15489C10.6874 7.1941 10.7407 7.2161 10.7963 7.2161C10.852 7.2161 10.9053 7.1941 10.9448 7.15489L12.91 5.20229C12.9298 5.18282 12.9456 5.15962 12.9564 5.13402C12.9673 5.10843 12.9729 5.08094 12.9731 5.05315C12.9732 5.02535 12.9678 4.99781 12.9573 4.9721C12.9467 4.94639 12.9312 4.92302 12.9116 4.90335Z" fill="#1A1A1A"/>
</svg>
