<svg width="76" height="72" viewBox="0 0 76 72" fill="none" xmlns="http://www.w3.org/2000/svg">
<path d="M71.2904 23.2258C71.2904 17.0245 56.3871 12 38 12C19.6129 12 4.70972 17.0245 4.70972 23.2258C4.70972 23.7523 4.70972 24.7742 4.70972 24.7742C4.70972 44.2297 19.6129 60 38 60C56.3871 60 71.2904 44.2297 71.2904 24.7742C71.2904 24.7742 71.2904 23.7523 71.2904 23.2258ZM40.0671 47.729C38.7665 49.2155 37.7213 50.7561 36.9626 52.2581C36.1962 50.7561 35.1587 49.2155 33.8581 47.729C32.8671 46.5987 31.8065 45.5923 30.7149 44.7174C31.8065 43.8426 32.8671 42.8361 33.8581 41.7058C35.1587 40.2194 36.2039 38.6787 36.9626 37.1768C37.7291 38.6787 38.7665 40.2194 40.0671 41.7058C41.0581 42.8361 42.1187 43.8426 43.2104 44.7174C42.1187 45.5923 41.0581 46.5987 40.0671 47.729ZM46.4155 38.9961C45.8581 39.6387 45.4091 40.2968 45.0762 40.9471C44.7433 40.3045 44.302 39.6387 43.7368 38.9961C43.311 38.5084 42.8542 38.0748 42.382 37.6955C42.8542 37.3161 43.311 36.8826 43.7368 36.3948C44.2942 35.7523 44.7433 35.0942 45.0762 34.4439C45.4091 35.0865 45.8504 35.7523 46.4155 36.3948C46.8413 36.8826 47.2981 37.3161 47.7704 37.6955C47.2981 38.0748 46.8413 38.5084 46.4155 38.9961ZM60.5523 28.2271C54.5755 30.24 46.5704 31.3548 38 31.3548C29.4297 31.3548 21.4246 30.2477 15.4478 28.2271C9.84262 26.3381 7.80649 24.2013 7.80649 23.2258C7.80649 22.2503 9.84262 20.1135 15.4478 18.2245C21.4246 16.2116 29.4297 15.0968 38 15.0968C46.5704 15.0968 54.5755 16.2039 60.5523 18.2245C66.1575 20.1135 68.1936 22.2503 68.1936 23.2258C68.1936 24.2013 66.1575 26.3381 60.5523 28.2271Z" fill="white"/>
</svg>
