<svg width="135" height="24" viewBox="0 0 135 24" fill="none" xmlns="http://www.w3.org/2000/svg">
<path d="M33.2903 5.6129C33.2903 2.51226 25.8387 0 16.6452 0C7.45161 0 0 2.51226 0 5.6129C0 5.87613 0 6.3871 0 6.3871C0 16.1148 7.45161 24 16.6452 24C25.8387 24 33.2903 16.1148 33.2903 6.3871C33.2903 6.3871 33.2903 5.87613 33.2903 5.6129ZM17.6787 17.8645C17.0284 18.6077 16.5058 19.3781 16.1265 20.129C15.7432 19.3781 15.2245 18.6077 14.5742 17.8645C14.0787 17.2994 13.5484 16.7961 13.0026 16.3587C13.5484 15.9213 14.0787 15.4181 14.5742 14.8529C15.2245 14.1097 15.7471 13.3394 16.1265 12.5884C16.5097 13.3394 17.0284 14.1097 17.6787 14.8529C18.1742 15.4181 18.7045 15.9213 19.2503 16.3587C18.7045 16.7961 18.1742 17.2994 17.6787 17.8645ZM20.8529 13.4981C20.5742 13.8194 20.3497 14.1484 20.1832 14.4735C20.0168 14.1523 19.7961 13.8194 19.5135 13.4981C19.3006 13.2542 19.0723 13.0374 18.8361 12.8477C19.0723 12.6581 19.3006 12.4413 19.5135 12.1974C19.7923 11.8761 20.0168 11.5471 20.1832 11.2219C20.3497 11.5432 20.5703 11.8761 20.8529 12.1974C21.0658 12.4413 21.2942 12.6581 21.5303 12.8477C21.2942 13.0374 21.0658 13.2542 20.8529 13.4981ZM27.9213 8.11355C24.9329 9.12 20.9303 9.67742 16.6452 9.67742C12.36 9.67742 8.35742 9.12387 5.36903 8.11355C2.56645 7.16903 1.54839 6.10065 1.54839 5.6129C1.54839 5.12516 2.56645 4.05677 5.36903 3.11226C8.35742 2.10581 12.36 1.54839 16.6452 1.54839C20.9303 1.54839 24.9329 2.10194 27.9213 3.11226C30.7239 4.05677 31.7419 5.12516 31.7419 5.6129C31.7419 6.10065 30.7239 7.16903 27.9213 8.11355Z" fill="#F87C97"/>
<path d="M44.3016 5.86364H47.3357L50.5403 13.6818H50.6766L53.8812 5.86364H56.9153V17.5H54.5289V9.92614H54.4323L51.421 17.4432H49.796L46.7846 9.89773H46.688V17.5H44.3016V5.86364ZM62.8741 17.6705C61.9764 17.6705 61.2036 17.4886 60.5559 17.125C59.912 16.7576 59.4158 16.2386 59.0673 15.5682C58.7188 14.8939 58.5445 14.0966 58.5445 13.1761C58.5445 12.2784 58.7188 11.4905 59.0673 10.8125C59.4158 10.1345 59.9063 9.60606 60.5389 9.22727C61.1752 8.84848 61.9214 8.65909 62.7775 8.65909C63.3533 8.65909 63.8892 8.75189 64.3855 8.9375C64.8855 9.11932 65.3211 9.39394 65.6923 9.76136C66.0673 10.1288 66.3589 10.5909 66.5673 11.1477C66.7756 11.7008 66.8798 12.3485 66.8798 13.0909V13.7557H59.5105V12.2557H64.6014C64.6014 11.9072 64.5256 11.5985 64.3741 11.3295C64.2226 11.0606 64.0123 10.8504 63.7434 10.6989C63.4783 10.5436 63.1695 10.4659 62.8173 10.4659C62.4498 10.4659 62.1241 10.5511 61.84 10.7216C61.5597 10.8883 61.34 11.1136 61.1809 11.3977C61.0218 11.678 60.9404 11.9905 60.9366 12.3352V13.7614C60.9366 14.1932 61.0161 14.5663 61.1752 14.8807C61.3381 15.1951 61.5673 15.4375 61.8627 15.608C62.1582 15.7784 62.5086 15.8636 62.9139 15.8636C63.1828 15.8636 63.429 15.8258 63.6525 15.75C63.876 15.6742 64.0673 15.5606 64.2264 15.4091C64.3855 15.2576 64.5067 15.072 64.59 14.8523L66.8286 15C66.715 15.5379 66.482 16.0076 66.1298 16.4091C65.7813 16.8068 65.3305 17.1174 64.7775 17.3409C64.2283 17.5606 63.5938 17.6705 62.8741 17.6705ZM70.948 17.6648C70.3911 17.6648 69.8949 17.5682 69.4593 17.375C69.0237 17.178 68.679 16.8883 68.4252 16.5057C68.1752 16.1193 68.0502 15.6383 68.0502 15.0625C68.0502 14.5777 68.1392 14.1705 68.3173 13.8409C68.4953 13.5114 68.7377 13.2462 69.0445 13.0455C69.3514 12.8447 69.6998 12.6932 70.09 12.5909C70.4839 12.4886 70.8968 12.4167 71.3286 12.375C71.8362 12.322 72.2453 12.2727 72.5559 12.2273C72.8665 12.178 73.0919 12.1061 73.232 12.0114C73.3722 11.9167 73.4423 11.7765 73.4423 11.5909V11.5568C73.4423 11.197 73.3286 10.9186 73.1014 10.7216C72.8779 10.5246 72.5597 10.4261 72.1468 10.4261C71.7112 10.4261 71.3646 10.5227 71.107 10.7159C70.8495 10.9053 70.679 11.1439 70.5957 11.4318L68.357 11.25C68.4707 10.7197 68.6942 10.2614 69.0275 9.875C69.3608 9.48485 69.7908 9.18561 70.3173 8.97727C70.8476 8.76515 71.4612 8.65909 72.1582 8.65909C72.643 8.65909 73.107 8.71591 73.5502 8.82955C73.9972 8.94318 74.393 9.11932 74.7377 9.35795C75.0862 9.59659 75.3608 9.90341 75.5616 10.2784C75.7623 10.6496 75.8627 11.0947 75.8627 11.6136V17.5H73.5673V16.2898H73.4991C73.3589 16.5625 73.1714 16.803 72.9366 17.0114C72.7017 17.2159 72.4195 17.3769 72.09 17.4943C71.7605 17.608 71.3798 17.6648 70.948 17.6648ZM71.6411 15.9943C71.9972 15.9943 72.3116 15.9242 72.5843 15.7841C72.857 15.6402 73.0711 15.447 73.2264 15.2045C73.3817 14.9621 73.4593 14.6875 73.4593 14.3807V13.4545C73.3836 13.5038 73.2794 13.5492 73.1468 13.5909C73.018 13.6288 72.8722 13.6648 72.7093 13.6989C72.5464 13.7292 72.3836 13.7576 72.2207 13.7841C72.0578 13.8068 71.9101 13.8277 71.7775 13.8466C71.4934 13.8883 71.2453 13.9545 71.0332 14.0455C70.8211 14.1364 70.6563 14.2595 70.5389 14.4148C70.4214 14.5663 70.3627 14.7557 70.3627 14.983C70.3627 15.3125 70.482 15.5644 70.7207 15.7386C70.9631 15.9091 71.2699 15.9943 71.6411 15.9943ZM80.161 5.86364V17.5H77.7406V5.86364H80.161ZM87.8542 17.5H85.2178L89.2349 5.86364H92.4053L96.4167 17.5H93.7803L90.8656 8.52273H90.7747L87.8542 17.5ZM87.6894 12.9261H93.9167V14.8466H87.6894V12.9261ZM104.83 11.2614L102.614 11.3977C102.576 11.2083 102.495 11.0379 102.37 10.8864C102.245 10.7311 102.08 10.608 101.876 10.517C101.675 10.4223 101.434 10.375 101.154 10.375C100.779 10.375 100.463 10.4545 100.205 10.6136C99.9475 10.7689 99.8187 10.9773 99.8187 11.2386C99.8187 11.447 99.902 11.6231 100.069 11.767C100.235 11.911 100.521 12.0265 100.927 12.1136L102.506 12.4318C103.355 12.6061 103.987 12.8864 104.404 13.2727C104.821 13.6591 105.029 14.1667 105.029 14.7955C105.029 15.3674 104.86 15.8693 104.523 16.3011C104.19 16.733 103.732 17.0701 103.148 17.3125C102.569 17.5511 101.9 17.6705 101.143 17.6705C99.9873 17.6705 99.0668 17.4299 98.3812 16.9489C97.6994 16.464 97.2998 15.8049 97.1823 14.9716L99.563 14.8466C99.635 15.1989 99.8092 15.4678 100.086 15.6534C100.362 15.8352 100.716 15.9261 101.148 15.9261C101.572 15.9261 101.913 15.8447 102.171 15.6818C102.432 15.5152 102.565 15.3011 102.569 15.0398C102.565 14.8201 102.472 14.6402 102.29 14.5C102.108 14.3561 101.828 14.2462 101.449 14.1705L99.938 13.8693C99.0857 13.6989 98.4513 13.4034 98.0346 12.983C97.6217 12.5625 97.4153 12.0265 97.4153 11.375C97.4153 10.8144 97.5668 10.3314 97.8698 9.92614C98.1766 9.52083 98.6066 9.20833 99.1596 8.98864C99.7164 8.76894 100.368 8.65909 101.114 8.65909C102.216 8.65909 103.084 8.89205 103.716 9.35795C104.353 9.82386 104.724 10.4583 104.83 11.2614ZM113.814 11.2614L111.599 11.3977C111.561 11.2083 111.479 11.0379 111.354 10.8864C111.229 10.7311 111.064 10.608 110.86 10.517C110.659 10.4223 110.419 10.375 110.138 10.375C109.763 10.375 109.447 10.4545 109.189 10.6136C108.932 10.7689 108.803 10.9773 108.803 11.2386C108.803 11.447 108.886 11.6231 109.053 11.767C109.22 11.911 109.506 12.0265 109.911 12.1136L111.491 12.4318C112.339 12.6061 112.972 12.8864 113.388 13.2727C113.805 13.6591 114.013 14.1667 114.013 14.7955C114.013 15.3674 113.845 15.8693 113.508 16.3011C113.174 16.733 112.716 17.0701 112.133 17.3125C111.553 17.5511 110.885 17.6705 110.127 17.6705C108.972 17.6705 108.051 17.4299 107.366 16.9489C106.684 16.464 106.284 15.8049 106.167 14.9716L108.547 14.8466C108.619 15.1989 108.794 15.4678 109.07 15.6534C109.347 15.8352 109.701 15.9261 110.133 15.9261C110.557 15.9261 110.898 15.8447 111.155 15.6818C111.417 15.5152 111.549 15.3011 111.553 15.0398C111.549 14.8201 111.456 14.6402 111.275 14.5C111.093 14.3561 110.813 14.2462 110.434 14.1705L108.922 13.8693C108.07 13.6989 107.436 13.4034 107.019 12.983C106.606 12.5625 106.4 12.0265 106.4 11.375C106.4 10.8144 106.551 10.3314 106.854 9.92614C107.161 9.52083 107.591 9.20833 108.144 8.98864C108.701 8.76894 109.352 8.65909 110.099 8.65909C111.201 8.65909 112.068 8.89205 112.701 9.35795C113.337 9.82386 113.708 10.4583 113.814 11.2614ZM115.537 17.5V8.77273H117.958V17.5H115.537ZM116.753 7.64773C116.394 7.64773 116.085 7.52841 115.827 7.28977C115.573 7.04735 115.447 6.75758 115.447 6.42045C115.447 6.08712 115.573 5.80114 115.827 5.5625C116.085 5.32008 116.394 5.19886 116.753 5.19886C117.113 5.19886 117.42 5.32008 117.674 5.5625C117.931 5.80114 118.06 6.08712 118.06 6.42045C118.06 6.75758 117.931 7.04735 117.674 7.28977C117.42 7.52841 117.113 7.64773 116.753 7.64773ZM127.158 11.2614L124.942 11.3977C124.904 11.2083 124.823 11.0379 124.698 10.8864C124.573 10.7311 124.408 10.608 124.204 10.517C124.003 10.4223 123.762 10.375 123.482 10.375C123.107 10.375 122.791 10.4545 122.533 10.6136C122.276 10.7689 122.147 10.9773 122.147 11.2386C122.147 11.447 122.23 11.6231 122.397 11.767C122.563 11.911 122.849 12.0265 123.255 12.1136L124.834 12.4318C125.683 12.6061 126.315 12.8864 126.732 13.2727C127.149 13.6591 127.357 14.1667 127.357 14.7955C127.357 15.3674 127.188 15.8693 126.851 16.3011C126.518 16.733 126.06 17.0701 125.476 17.3125C124.897 17.5511 124.228 17.6705 123.471 17.6705C122.315 17.6705 121.395 17.4299 120.709 16.9489C120.027 16.464 119.628 15.8049 119.51 14.9716L121.891 14.8466C121.963 15.1989 122.137 15.4678 122.414 15.6534C122.69 15.8352 123.045 15.9261 123.476 15.9261C123.901 15.9261 124.242 15.8447 124.499 15.6818C124.76 15.5152 124.893 15.3011 124.897 15.0398C124.893 14.8201 124.8 14.6402 124.618 14.5C124.437 14.3561 124.156 14.2462 123.777 14.1705L122.266 13.8693C121.414 13.6989 120.779 13.4034 120.363 12.983C119.95 12.5625 119.743 12.0265 119.743 11.375C119.743 10.8144 119.895 10.3314 120.198 9.92614C120.505 9.52083 120.935 9.20833 121.488 8.98864C122.045 8.76894 122.696 8.65909 123.442 8.65909C124.545 8.65909 125.412 8.89205 126.045 9.35795C126.681 9.82386 127.052 10.4583 127.158 11.2614ZM133.523 8.77273V10.5909H128.268V8.77273H133.523ZM129.461 6.68182H131.881V14.8182C131.881 15.0417 131.915 15.2159 131.983 15.3409C132.052 15.4621 132.146 15.5473 132.268 15.5966C132.393 15.6458 132.536 15.6705 132.699 15.6705C132.813 15.6705 132.927 15.661 133.04 15.642C133.154 15.6193 133.241 15.6023 133.302 15.5909L133.682 17.392C133.561 17.4299 133.391 17.4735 133.171 17.5227C132.951 17.5758 132.684 17.608 132.37 17.6193C131.786 17.642 131.275 17.5644 130.836 17.3864C130.4 17.2083 130.061 16.9318 129.819 16.5568C129.576 16.1818 129.457 15.7083 129.461 15.1364V6.68182Z" fill="#F87C97"/>
</svg>
