<svg width="28" height="26" viewBox="0 0 28 26" fill="none" xmlns="http://www.w3.org/2000/svg">
<path d="M8.75 24.9999V13.9599C7.71513 13.7431 6.7814 13.1891 6.095 12.3849C5.36779 11.5629 4.97684 10.4972 5 9.39991V0.999887H6.8V9.39991H8.75V0.999887H10.55V9.39991H12.5V0.999887H14.3V9.39991C14.3218 10.4978 13.929 11.5636 13.2 12.3849C12.5136 13.1891 11.5799 13.7431 10.545 13.9599V24.9999H8.75ZM21.2 24.9999V15.3999H17.75V6.24989C17.7184 5.55028 17.8297 4.85157 18.0773 4.19648C18.3249 3.54139 18.7035 2.94368 19.19 2.43989C19.6938 1.95343 20.2915 1.57481 20.9466 1.32722C21.6017 1.07962 22.3004 0.96825 23 0.999887V24.9999H21.2Z" fill="#6C36FF"/>
</svg>
