<svg width="20" height="18" viewBox="0 0 20 18" fill="none" xmlns="http://www.w3.org/2000/svg">
<path d="M10 11.14C9.57762 11.139 9.15974 11.0532 8.77117 10.8876C8.3826 10.722 8.03126 10.48 7.73801 10.176C7.13768 9.57057 6.80059 8.75264 6.80001 7.90002V3.46003C6.79837 3.03934 6.88002 2.62249 7.04026 2.23351C7.20049 1.84452 7.43614 1.49111 7.73361 1.19363C8.03109 0.896161 8.3845 0.660513 8.77348 0.500279C9.16247 0.340045 9.57932 0.258394 10 0.260034C11.7944 0.260034 13.2 1.66563 13.2 3.46003V7.90002C13.2 9.68642 11.7644 11.14 10 11.14Z" fill="#ffffff"/>
<path d="M7.44 16.74H12.56M15.12 7.14001V8.42001C15.12 11.236 12.816 13.54 10 13.54M10 13.54C7.184 13.54 4.88 11.236 4.88 8.42001V7.14001M10 13.54V16.74" stroke="#ffffff" stroke-width="1.92" stroke-linecap="round" stroke-linejoin="round"/>
</svg>
