<svg width="26" height="30" viewBox="0 0 26 30" fill="none" xmlns="http://www.w3.org/2000/svg">
<path d="M3.06 0.268066H7.686C8.28249 0.26886 8.85433 0.506168 9.27611 0.927953C9.6979 1.34974 9.9352 1.92157 9.936 2.51807V27.4821C9.9352 28.0786 9.6979 28.6504 9.27611 29.0722C8.85433 29.494 8.28249 29.7313 7.686 29.7321H3.06C2.4635 29.7313 1.89167 29.494 1.46988 29.0722C1.0481 28.6504 0.810791 28.0786 0.809998 27.4821V2.51807C0.810791 1.92157 1.0481 1.34974 1.46988 0.927953C1.89167 0.506168 2.4635 0.26886 3.06 0.268066Z" fill="white"/>
<path d="M18.313 0.268066H22.939C23.5355 0.26886 24.1073 0.506168 24.5291 0.927953C24.9509 1.34974 25.1882 1.92157 25.189 2.51807V27.4821C25.1882 28.0786 24.9509 28.6504 24.5291 29.0722C24.1073 29.494 23.5355 29.7313 22.939 29.7321H18.313C17.7165 29.7313 17.1447 29.494 16.7229 29.0722C16.3011 28.6504 16.0638 28.0786 16.063 27.4821V2.51807C16.0638 1.92157 16.3011 1.34974 16.7229 0.927953C17.1447 0.506168 17.7165 0.26886 18.313 0.268066Z" fill="white"/>
</svg>
