<svg width="162" height="29" viewBox="0 0 162 29" fill="none" xmlns="http://www.w3.org/2000/svg">
<path d="M8.41721 26.5C9.43938 24.4765 10.8475 22.4009 12.5997 20.3983C13.9348 18.8755 15.3637 17.5196 16.8344 16.3409C15.3637 15.1623 13.9348 13.8064 12.5997 12.2836C10.8475 10.281 9.44981 8.20534 8.41721 6.18187C7.39505 8.20534 5.98696 10.281 4.23468 12.2836C2.89961 13.8064 1.47066 15.1623 0 16.3409C1.47066 17.5196 2.89961 18.8755 4.23468 20.3983C5.98696 22.4009 7.38462 24.4765 8.41721 26.5Z" fill="#F87C97"/>
<path d="M19.3481 11.2614C19.7966 10.3853 20.4016 9.4987 21.1525 8.63299C21.7262 7.97588 22.3416 7.39178 22.9778 6.8807C22.3416 6.36962 21.7262 5.78552 21.1525 5.12842C20.3911 4.26271 19.7966 3.36571 19.3481 2.5C18.8996 3.37614 18.2946 4.26271 17.5437 5.12842C16.97 5.78552 16.3546 6.36962 15.7184 6.8807C16.3546 7.39178 16.97 7.97588 17.5437 8.63299C18.3051 9.4987 18.8996 10.3957 19.3481 11.2614Z" fill="#F87C97"/>
<path d="M32.8954 23V5.54545H39.117C40.4749 5.54545 41.5999 5.79261 42.492 6.28693C43.384 6.78125 44.0516 7.45739 44.4948 8.31534C44.938 9.16761 45.1596 10.1278 45.1596 11.196C45.1596 12.2699 44.9352 13.2358 44.4863 14.0938C44.0431 14.946 43.3727 15.6222 42.4749 16.1222C41.5829 16.6165 40.4607 16.8636 39.1085 16.8636H34.8301V14.6307H38.8698C39.7278 14.6307 40.4238 14.483 40.9579 14.1875C41.492 13.8864 41.884 13.4773 42.134 12.9602C42.384 12.4432 42.509 11.8551 42.509 11.196C42.509 10.5369 42.384 9.9517 42.134 9.44034C41.884 8.92898 41.4891 8.52841 40.9494 8.23864C40.4153 7.94886 39.7107 7.80398 38.8357 7.80398H35.5289V23H32.8954ZM48.5224 23V9.90909H50.9855V11.9886H51.1218C51.3605 11.2841 51.7809 10.7301 52.3832 10.3267C52.9912 9.91761 53.6787 9.71307 54.4457 9.71307C54.6048 9.71307 54.7923 9.71875 55.0082 9.73011C55.2298 9.74148 55.4031 9.75568 55.5281 9.77273V12.2102C55.4258 12.1818 55.244 12.1506 54.9826 12.1165C54.7213 12.0767 54.4599 12.0568 54.1985 12.0568C53.5963 12.0568 53.0593 12.1847 52.5878 12.4403C52.1218 12.6903 51.7525 13.0398 51.4798 13.4886C51.2071 13.9318 51.0707 14.4375 51.0707 15.0057V23H48.5224ZM63.2588 23.2642C62.0315 23.2642 60.9605 22.983 60.0457 22.4205C59.131 21.858 58.4207 21.071 57.9151 20.0597C57.4094 19.0483 57.1565 17.8665 57.1565 16.5142C57.1565 15.1562 57.4094 13.9687 57.9151 12.9517C58.4207 11.9347 59.131 11.1449 60.0457 10.5824C60.9605 10.0199 62.0315 9.73864 63.2588 9.73864C64.4861 9.73864 65.5571 10.0199 66.4719 10.5824C67.3866 11.1449 68.0969 11.9347 68.6026 12.9517C69.1082 13.9687 69.3611 15.1562 69.3611 16.5142C69.3611 17.8665 69.1082 19.0483 68.6026 20.0597C68.0969 21.071 67.3866 21.858 66.4719 22.4205C65.5571 22.983 64.4861 23.2642 63.2588 23.2642ZM63.2673 21.125C64.0628 21.125 64.7219 20.9148 65.2446 20.4943C65.7673 20.0739 66.1537 19.5142 66.4037 18.8153C66.6594 18.1165 66.7872 17.3466 66.7872 16.5057C66.7872 15.6705 66.6594 14.9034 66.4037 14.2045C66.1537 13.5 65.7673 12.9347 65.2446 12.5085C64.7219 12.0824 64.0628 11.8693 63.2673 11.8693C62.4662 11.8693 61.8014 12.0824 61.273 12.5085C60.7503 12.9347 60.3611 13.5 60.1054 14.2045C59.8554 14.9034 59.7304 15.6705 59.7304 16.5057C59.7304 17.3466 59.8554 18.1165 60.1054 18.8153C60.3611 19.5142 60.7503 20.0739 61.273 20.4943C61.8014 20.9148 62.4662 21.125 63.2673 21.125ZM72.6855 23V9.90909H75.1316V12.0398H75.2935C75.5662 11.3182 76.0122 10.7557 76.6316 10.3523C77.2509 9.94318 77.9924 9.73864 78.856 9.73864C79.731 9.73864 80.4639 9.94318 81.0549 10.3523C81.6514 10.7614 82.0918 11.3239 82.3759 12.0398H82.5122C82.8247 11.3409 83.3219 10.7841 84.0037 10.3693C84.6855 9.94886 85.498 9.73864 86.4412 9.73864C87.6287 9.73864 88.5975 10.1108 89.3475 10.8551C90.1032 11.5994 90.481 12.7216 90.481 14.2216V23H87.9327V14.4602C87.9327 13.5739 87.6912 12.9318 87.2083 12.5341C86.7253 12.1364 86.1486 11.9375 85.4782 11.9375C84.6486 11.9375 84.0037 12.1932 83.5435 12.7045C83.0833 13.2102 82.8532 13.8608 82.8532 14.6562V23H80.3134V14.2983C80.3134 13.5881 80.0918 13.017 79.6486 12.5852C79.2054 12.1534 78.6287 11.9375 77.9185 11.9375C77.4355 11.9375 76.9895 12.0653 76.5804 12.321C76.177 12.571 75.8503 12.9205 75.6003 13.3693C75.356 13.8182 75.2338 14.3381 75.2338 14.929V23H72.6855ZM100.019 23.2642C98.7287 23.2642 97.618 22.9886 96.6861 22.4375C95.76 21.8807 95.0441 21.0994 94.5384 20.0938C94.0384 19.0824 93.7884 17.8977 93.7884 16.5398C93.7884 15.1989 94.0384 14.017 94.5384 12.9943C95.0441 11.9716 95.7486 11.1733 96.652 10.5994C97.5611 10.0256 98.6236 9.73864 99.8395 9.73864C100.578 9.73864 101.294 9.8608 101.987 10.1051C102.68 10.3494 103.303 10.733 103.854 11.2557C104.405 11.7784 104.84 12.4574 105.158 13.2926C105.476 14.1222 105.635 15.1307 105.635 16.3182V17.2216H95.2287V15.3125H103.138C103.138 14.642 103.001 14.0483 102.729 13.5312C102.456 13.0085 102.072 12.5966 101.578 12.2955C101.09 11.9943 100.516 11.8438 99.8566 11.8438C99.1407 11.8438 98.5157 12.0199 97.9816 12.3722C97.4532 12.7187 97.0441 13.1733 96.7543 13.7358C96.4702 14.2926 96.3282 14.8977 96.3282 15.5511V17.0426C96.3282 17.9176 96.4816 18.6619 96.7884 19.2756C97.1009 19.8892 97.5356 20.358 98.0924 20.6818C98.6492 21 99.2998 21.1591 100.044 21.1591C100.527 21.1591 100.967 21.0909 101.365 20.9545C101.763 20.8125 102.107 20.6023 102.396 20.3239C102.686 20.0455 102.908 19.7017 103.061 19.2926L105.473 19.7273C105.28 20.4375 104.933 21.0597 104.433 21.5938C103.939 22.1222 103.317 22.5341 102.567 22.8295C101.822 23.1193 100.973 23.2642 100.019 23.2642ZM115.053 9.90909V11.9545H107.903V9.90909H115.053ZM109.82 6.77273H112.369V19.1562C112.369 19.6506 112.442 20.0227 112.59 20.2727C112.738 20.517 112.928 20.6847 113.161 20.7756C113.4 20.8608 113.658 20.9034 113.937 20.9034C114.141 20.9034 114.32 20.8892 114.474 20.8608C114.627 20.8324 114.746 20.8097 114.832 20.7926L115.292 22.8977C115.144 22.9545 114.934 23.0114 114.661 23.0682C114.388 23.1307 114.048 23.1648 113.638 23.1705C112.968 23.1818 112.343 23.0625 111.763 22.8125C111.184 22.5625 110.715 22.1761 110.357 21.6534C109.999 21.1307 109.82 20.4744 109.82 19.6847V6.77273ZM121.182 15.2273V23H118.633V5.54545H121.148V12.0398H121.309C121.616 11.3352 122.085 10.7756 122.716 10.3608C123.346 9.94602 124.17 9.73864 125.187 9.73864C126.085 9.73864 126.869 9.9233 127.54 10.2926C128.216 10.6619 128.738 11.2131 129.108 11.946C129.483 12.6733 129.67 13.5824 129.67 14.6733V23H127.122V14.9801C127.122 14.0199 126.875 13.2756 126.381 12.7472C125.886 12.2131 125.199 11.946 124.318 11.946C123.716 11.946 123.176 12.0739 122.699 12.3295C122.227 12.5852 121.855 12.9602 121.582 13.4545C121.315 13.9432 121.182 14.5341 121.182 15.2273Z" fill="#F87C97"/>
<path d="M140.503 23H136.549L142.574 5.54545H147.33L153.347 23H149.393L145.02 9.53409H144.884L140.503 23ZM140.256 16.1392H149.597V19.0199H140.256V16.1392ZM159.618 5.54545V23H155.928V5.54545H159.618Z" fill="#F87C97"/>
</svg>
