<svg width="16" height="19" viewBox="0 0 16 19" fill="none" xmlns="http://www.w3.org/2000/svg">
<path d="M10.8 4.6876C10.8 4.6876 11.8658 4.1626 8 4.1626C6.61553 4.1626 5.26215 4.57314 4.11101 5.34231C2.95987 6.11148 2.06266 7.20473 1.53285 8.48381C1.00303 9.76289 0.86441 11.1704 1.13451 12.5282C1.4046 13.8861 2.07129 15.1334 3.05026 16.1123C4.02922 17.0913 5.2765 17.758 6.63437 18.0281C7.99224 18.2982 9.3997 18.1596 10.6788 17.6297C11.9579 17.0999 13.0511 16.2027 13.8203 15.0516C14.5895 13.9004 15 12.5471 15 11.1626" stroke="#444444" stroke-width="1.4" stroke-miterlimit="10" stroke-linecap="round"/>
<path d="M8 0.837402L11.5 4.3374L8 7.8374" stroke="#444444" stroke-width="1.4" stroke-linecap="round" stroke-linejoin="round"/>
</svg>
