<svg width="21" height="21" viewBox="0 0 21 21" fill="none" xmlns="http://www.w3.org/2000/svg">
<path d="M17.9322 11.48C17.9722 11.16 18.0022 10.84 18.0022 10.5C18.0022 10.16 17.9722 9.84 17.9322 9.52L20.0422 7.87C20.2322 7.72 20.2822 7.45 20.1622 7.23L18.1622 3.77C18.0722 3.61 17.9022 3.52 17.7222 3.52C17.6622 3.52 17.6022 3.53 17.5522 3.55L15.0622 4.55C14.5422 4.15 13.9822 3.82 13.3722 3.57L12.9922 0.92C12.9622 0.68 12.7522 0.5 12.5022 0.5H8.50216C8.25216 0.5 8.04216 0.68 8.01216 0.92L7.63216 3.57C7.02216 3.82 6.46216 4.16 5.94216 4.55L3.45216 3.55C3.39216 3.53 3.33216 3.52 3.27216 3.52C3.10216 3.52 2.93216 3.61 2.84216 3.77L0.842159 7.23C0.712159 7.45 0.772159 7.72 0.962159 7.87L3.07216 9.52C3.03216 9.84 3.00216 10.17 3.00216 10.5C3.00216 10.83 3.03216 11.16 3.07216 11.48L0.962159 13.13C0.772159 13.28 0.722159 13.55 0.842159 13.77L2.84216 17.23C2.93216 17.39 3.10216 17.48 3.28216 17.48C3.34216 17.48 3.40216 17.47 3.45216 17.45L5.94216 16.45C6.46216 16.85 7.02216 17.18 7.63216 17.43L8.01216 20.08C8.04216 20.32 8.25216 20.5 8.50216 20.5H12.5022C12.7522 20.5 12.9622 20.32 12.9922 20.08L13.3722 17.43C13.9822 17.18 14.5422 16.84 15.0622 16.45L17.5522 17.45C17.6122 17.47 17.6722 17.48 17.7322 17.48C17.9022 17.48 18.0722 17.39 18.1622 17.23L20.1622 13.77C20.2822 13.55 20.2322 13.28 20.0422 13.13L17.9322 11.48ZM15.9522 9.77C15.9922 10.08 16.0022 10.29 16.0022 10.5C16.0022 10.71 15.9822 10.93 15.9522 11.23L15.8122 12.36L16.7022 13.06L17.7822 13.9L17.0822 15.11L15.8122 14.6L14.7722 14.18L13.8722 14.86C13.4422 15.18 13.0322 15.42 12.6222 15.59L11.5622 16.02L11.4022 17.15L11.2022 18.5H9.80216L9.61216 17.15L9.45216 16.02L8.39216 15.59C7.96216 15.41 7.56216 15.18 7.16216 14.88L6.25216 14.18L5.19216 14.61L3.92216 15.12L3.22216 13.91L4.30216 13.07L5.19216 12.37L5.05216 11.24C5.02216 10.93 5.00216 10.7 5.00216 10.5C5.00216 10.3 5.02216 10.07 5.05216 9.77L5.19216 8.64L4.30216 7.94L3.22216 7.1L3.92216 5.89L5.19216 6.4L6.23216 6.82L7.13216 6.14C7.56216 5.82 7.97216 5.58 8.38216 5.41L9.44216 4.98L9.60216 3.85L9.80216 2.5H11.1922L11.3822 3.85L11.5422 4.98L12.6022 5.41C13.0322 5.59 13.4322 5.82 13.8322 6.12L14.7422 6.82L15.8022 6.39L17.0722 5.88L17.7722 7.09L16.7022 7.94L15.8122 8.64L15.9522 9.77ZM10.5022 6.5C8.29216 6.5 6.50216 8.29 6.50216 10.5C6.50216 12.71 8.29216 14.5 10.5022 14.5C12.7122 14.5 14.5022 12.71 14.5022 10.5C14.5022 8.29 12.7122 6.5 10.5022 6.5ZM10.5022 12.5C9.40216 12.5 8.50216 11.6 8.50216 10.5C8.50216 9.4 9.40216 8.5 10.5022 8.5C11.6022 8.5 12.5022 9.4 12.5022 10.5C12.5022 11.6 11.6022 12.5 10.5022 12.5Z" fill="white"/>
</svg>
