<svg width="16" height="16" viewBox="0 0 16 16" fill="none" xmlns="http://www.w3.org/2000/svg">
<path d="M16 4.57787H15.104C14.8635 3.89382 14.4756 3.16091 13.9404 2.37914C13.4128 1.59737 12.9241 1.17642 12.4742 1.11628C12.2259 1.08621 11.9195 1.0599 11.5549 1.03735C11.1903 1.0148 10.8761 1.00352 10.6124 1.00352H10.0655V13.5532C10.0655 13.8238 10.1159 14.0644 10.2167 14.2748C10.3176 14.4778 10.5154 14.6394 10.8102 14.7597C10.9886 14.8273 11.264 14.8988 11.6364 14.9739C12.0165 15.0416 12.3384 15.0904 12.6022 15.1205V16H3.39782V15.1205C3.62279 15.098 3.93697 15.0679 4.34036 15.0303C4.75152 14.9852 5.03079 14.9326 5.17818 14.8724C5.48073 14.7522 5.68242 14.5906 5.78327 14.3876C5.88412 14.1846 5.93455 13.9441 5.93455 13.666V1.00352H5.38764C5.12388 1.00352 4.8097 1.0148 4.44509 1.03735C4.08048 1.0599 3.77406 1.08621 3.52582 1.11628C3.07588 1.17642 2.58327 1.59737 2.048 2.37914C1.52048 3.16091 1.13648 3.89382 0.896 4.57787H0V0H16V4.57787Z" fill="#F87C97"/>
</svg>
