<svg width="21" height="19" viewBox="0 0 21 19" fill="none" xmlns="http://www.w3.org/2000/svg">
<path d="M11.6556 0.928467C6.92229 0.928467 3.08419 4.76656 3.08419 9.49989H0.227051L3.93181 13.2047L3.99848 13.338L7.8461 9.49989H4.98896C4.98896 5.81418 7.96991 2.83323 11.6556 2.83323C15.3413 2.83323 18.3223 5.81418 18.3223 9.49989C18.3223 13.1856 15.3413 16.1666 11.6556 16.1666C9.81753 16.1666 8.15086 15.4142 6.95086 14.2047L5.59848 15.557C7.15086 17.1094 9.28419 18.0713 11.6556 18.0713C16.389 18.0713 20.2271 14.2332 20.2271 9.49989C20.2271 4.76656 16.389 0.928467 11.6556 0.928467ZM10.7032 5.69037V10.4523L14.7509 12.8523L15.4842 11.6332L12.1318 9.64275V5.69037H10.7032Z" fill="white"/>
</svg>
